%TF.GenerationSoftware,KiCad,Pcbnew,7.0.2*%
%TF.CreationDate,2023-06-25T00:33:16+10:00*%
%TF.ProjectId,keyboard,6b657962-6f61-4726-942e-6b696361645f,v1.0.0*%
%TF.SameCoordinates,Original*%
%TF.FileFunction,Paste,Bot*%
%TF.FilePolarity,Positive*%
%FSLAX46Y46*%
G04 Gerber Fmt 4.6, Leading zero omitted, Abs format (unit mm)*
G04 Created by KiCad (PCBNEW 7.0.2) date 2023-06-25 00:33:16*
%MOMM*%
%LPD*%
G01*
G04 APERTURE LIST*
G04 Aperture macros list*
%AMRoundRect*
0 Rectangle with rounded corners*
0 $1 Rounding radius*
0 $2 $3 $4 $5 $6 $7 $8 $9 X,Y pos of 4 corners*
0 Add a 4 corners polygon primitive as box body*
4,1,4,$2,$3,$4,$5,$6,$7,$8,$9,$2,$3,0*
0 Add four circle primitives for the rounded corners*
1,1,$1+$1,$2,$3*
1,1,$1+$1,$4,$5*
1,1,$1+$1,$6,$7*
1,1,$1+$1,$8,$9*
0 Add four rect primitives between the rounded corners*
20,1,$1+$1,$2,$3,$4,$5,0*
20,1,$1+$1,$4,$5,$6,$7,0*
20,1,$1+$1,$6,$7,$8,$9,0*
20,1,$1+$1,$8,$9,$2,$3,0*%
G04 Aperture macros list end*
%ADD10RoundRect,0.200000X-0.227408X0.252805X-0.310573X-0.138454X0.227408X-0.252805X0.310573X0.138454X0*%
%ADD11RoundRect,0.200000X0.252805X0.227408X-0.138454X0.310573X-0.252805X-0.227408X0.138454X-0.310573X0*%
%ADD12RoundRect,0.225000X0.320025X-0.298050X0.413585X0.142116X-0.320025X0.298050X-0.413585X-0.142116X0*%
%ADD13RoundRect,0.225000X0.413585X-0.142116X0.320025X0.298050X-0.413585X0.142116X-0.320025X-0.298050X0*%
%ADD14RoundRect,0.225000X0.436275X-0.030230X0.231980X0.370723X-0.436275X0.030230X-0.231980X-0.370723X0*%
%ADD15RoundRect,0.225000X-0.225000X-0.250000X0.225000X-0.250000X0.225000X0.250000X-0.225000X0.250000X0*%
%ADD16RoundRect,0.150000X-0.605848X-0.024574X0.543475X-0.268870X0.605848X0.024574X-0.543475X0.268870X0*%
%ADD17RoundRect,0.218750X0.218750X0.381250X-0.218750X0.381250X-0.218750X-0.381250X0.218750X-0.381250X0*%
%ADD18RoundRect,0.225000X0.231980X-0.370723X0.436275X0.030230X-0.231980X0.370723X-0.436275X-0.030230X0*%
G04 APERTURE END LIST*
D10*
%TO.C,R8*%
X98671527Y-72193028D03*
X98328473Y-73806972D03*
%TD*%
D11*
%TO.C,R7*%
X96056972Y-72671527D03*
X94443028Y-72328473D03*
%TD*%
%TO.C,R5*%
X95556972Y-74921527D03*
X93943028Y-74578473D03*
%TD*%
D12*
%TO.C,D9*%
X128590032Y-108626312D03*
X129276140Y-105398424D03*
%TD*%
D13*
%TO.C,D42*%
X318514665Y-103215023D03*
X317828557Y-99987135D03*
%TD*%
%TO.C,D40*%
X311341712Y-69468930D03*
X310655604Y-66241042D03*
%TD*%
D12*
%TO.C,D10*%
X153155811Y-76021327D03*
X153841919Y-72793439D03*
%TD*%
D13*
%TO.C,D29*%
X253673355Y-130032311D03*
X252987247Y-126804423D03*
%TD*%
%TO.C,D34*%
X276660017Y-72240220D03*
X275973909Y-69012332D03*
%TD*%
D14*
%TO.C,D25*%
X230873827Y-136795352D03*
X229375659Y-133855030D03*
%TD*%
D13*
%TO.C,D37*%
X294052843Y-71099112D03*
X293366735Y-67871224D03*
%TD*%
%TO.C,D23*%
X229211532Y-97916400D03*
X228525424Y-94688512D03*
%TD*%
D12*
%TO.C,D4*%
X118370160Y-73739112D03*
X119056268Y-70511224D03*
%TD*%
%TO.C,D3*%
X93908338Y-105855023D03*
X94594446Y-102627135D03*
%TD*%
D13*
%TO.C,D32*%
X266440145Y-107127419D03*
X265754037Y-103899531D03*
%TD*%
D12*
%TO.C,D13*%
X142396381Y-126640466D03*
X143082489Y-123412578D03*
%TD*%
D13*
%TO.C,D39*%
X301225796Y-104845204D03*
X300539688Y-101617316D03*
%TD*%
%TO.C,D38*%
X297639319Y-87972158D03*
X296953211Y-84744270D03*
%TD*%
D12*
%TO.C,D7*%
X135762986Y-74880220D03*
X136449094Y-71652332D03*
%TD*%
%TO.C,D2*%
X97494814Y-88981977D03*
X98180922Y-85754089D03*
%TD*%
%TO.C,D19*%
X183211471Y-100556400D03*
X183897579Y-97328512D03*
%TD*%
D13*
%TO.C,D28*%
X250086878Y-113159265D03*
X249400770Y-109931377D03*
%TD*%
D12*
%TO.C,D1*%
X101081291Y-72108930D03*
X101767399Y-68881042D03*
%TD*%
%TO.C,D8*%
X132176509Y-91753266D03*
X132862617Y-88525378D03*
%TD*%
D13*
%TO.C,D24*%
X232798009Y-114789447D03*
X232111901Y-111561559D03*
%TD*%
%TO.C,D27*%
X246500402Y-96286219D03*
X245814294Y-93058331D03*
%TD*%
D12*
%TO.C,D5*%
X114783684Y-90612158D03*
X115469792Y-87384270D03*
%TD*%
%TO.C,D15*%
X165922601Y-98926219D03*
X166608709Y-95698331D03*
%TD*%
D15*
%TO.C,C15*%
X198925000Y-102000000D03*
X200475000Y-102000000D03*
%TD*%
D13*
%TO.C,D31*%
X262853669Y-90254373D03*
X262167561Y-87026485D03*
%TD*%
D16*
%TO.C,Q2*%
X97385471Y-69984323D03*
X97780503Y-68125843D03*
X99417013Y-69444917D03*
%TD*%
D17*
%TO.C,L1*%
X201062500Y-103750000D03*
X198937500Y-103750000D03*
%TD*%
D13*
%TO.C,D26*%
X242913925Y-79413173D03*
X242227817Y-76185285D03*
%TD*%
%TO.C,D30*%
X259267192Y-73381327D03*
X258581084Y-70153439D03*
%TD*%
D12*
%TO.C,D18*%
X186797947Y-83683354D03*
X187484055Y-80455466D03*
%TD*%
D13*
%TO.C,D33*%
X270026622Y-124000466D03*
X269340514Y-120772578D03*
%TD*%
D12*
%TO.C,D14*%
X169509078Y-82053173D03*
X170195186Y-78825285D03*
%TD*%
%TO.C,D11*%
X149569334Y-92894373D03*
X150255442Y-89666485D03*
%TD*%
D13*
%TO.C,D22*%
X225625055Y-81043354D03*
X224938947Y-77815466D03*
%TD*%
D18*
%TO.C,D21*%
X180441176Y-142560352D03*
X181939344Y-139620030D03*
%TD*%
D13*
%TO.C,D36*%
X283832971Y-105986312D03*
X283146863Y-102758424D03*
%TD*%
%TO.C,D35*%
X280246494Y-89113266D03*
X279560386Y-85885378D03*
%TD*%
D12*
%TO.C,D17*%
X158749648Y-132672311D03*
X159435756Y-129444423D03*
%TD*%
%TO.C,D16*%
X162336125Y-115799265D03*
X163022233Y-112571377D03*
%TD*%
%TO.C,D20*%
X179624994Y-117429447D03*
X180311102Y-114201559D03*
%TD*%
%TO.C,D12*%
X145982858Y-109767419D03*
X146668966Y-106539531D03*
%TD*%
%TO.C,D6*%
X111197207Y-107485204D03*
X111883315Y-104257316D03*
%TD*%
D13*
%TO.C,D41*%
X314928189Y-86341977D03*
X314242081Y-83114089D03*
%TD*%
M02*
