%TF.GenerationSoftware,KiCad,Pcbnew,7.0.2*%
%TF.CreationDate,2023-06-25T00:33:17+10:00*%
%TF.ProjectId,keyboard,6b657962-6f61-4726-942e-6b696361645f,v1.0.0*%
%TF.SameCoordinates,Original*%
%TF.FileFunction,Profile,NP*%
%FSLAX46Y46*%
G04 Gerber Fmt 4.6, Leading zero omitted, Abs format (unit mm)*
G04 Created by KiCad (PCBNEW 7.0.2) date 2023-06-25 00:33:17*
%MOMM*%
%LPD*%
G01*
G04 APERTURE LIST*
%TA.AperFunction,Profile*%
%ADD10C,0.200000*%
%TD*%
G04 APERTURE END LIST*
D10*
X195250002Y-61336102D02*
G75*
G03*
X194750002Y-61836118I-2J-499998D01*
G01*
X205250033Y-62257667D02*
G75*
G03*
X206275102Y-63257352I999967J-33D01*
G01*
X78848748Y-101671275D02*
X88798455Y-54861581D01*
X78848719Y-101671269D02*
G75*
G03*
X81923906Y-107369553I4890781J-1039531D01*
G01*
X318076097Y-107369553D02*
X215378572Y-147392466D01*
X200000002Y-149098867D02*
X193699329Y-149098867D01*
X318076087Y-107369527D02*
G75*
G03*
X321151254Y-101671275I-1815587J4658727D01*
G01*
X94385059Y-50949799D02*
X165206726Y-60903136D01*
X311201506Y-54861590D02*
G75*
G03*
X305614944Y-50949800I-4890706J-1039510D01*
G01*
X194750002Y-61836118D02*
X194750002Y-62257667D01*
X94385064Y-50949762D02*
G75*
G03*
X88798456Y-54861581I-695864J-4951338D01*
G01*
X200000002Y-61336118D02*
X204750002Y-61336118D01*
X321151255Y-101671275D02*
X311201548Y-54861581D01*
X81923906Y-107369553D02*
X184621431Y-147392466D01*
X305614944Y-50949799D02*
X234793277Y-60903136D01*
X193724900Y-63257389D02*
G75*
G03*
X194750002Y-62257667I25000J999789D01*
G01*
X184621433Y-147392461D02*
G75*
G03*
X193699329Y-149098867I9077867J23293361D01*
G01*
X200000002Y-61336118D02*
X195250002Y-61336118D01*
X200000002Y-149098867D02*
X206300674Y-149098867D01*
X165206725Y-60903140D02*
G75*
G03*
X193724901Y-63257351I34793275J247567640D01*
G01*
X206300674Y-149098854D02*
G75*
G03*
X215378572Y-147392465I-74J25000554D01*
G01*
X205250002Y-61836118D02*
X205250002Y-62257667D01*
X206275102Y-63257352D02*
G75*
G03*
X234793277Y-60903135I-6275102J249921252D01*
G01*
X205249982Y-61836118D02*
G75*
G03*
X204750002Y-61336118I-499982J18D01*
G01*
M02*
