%TF.GenerationSoftware,KiCad,Pcbnew,7.0.2*%
%TF.CreationDate,2023-06-25T00:33:17+10:00*%
%TF.ProjectId,keyboard,6b657962-6f61-4726-942e-6b696361645f,v1.0.0*%
%TF.SameCoordinates,Original*%
%TF.FileFunction,Soldermask,Bot*%
%TF.FilePolarity,Negative*%
%FSLAX46Y46*%
G04 Gerber Fmt 4.6, Leading zero omitted, Abs format (unit mm)*
G04 Created by KiCad (PCBNEW 7.0.2) date 2023-06-25 00:33:17*
%MOMM*%
%LPD*%
G01*
G04 APERTURE LIST*
G04 Aperture macros list*
%AMRoundRect*
0 Rectangle with rounded corners*
0 $1 Rounding radius*
0 $2 $3 $4 $5 $6 $7 $8 $9 X,Y pos of 4 corners*
0 Add a 4 corners polygon primitive as box body*
4,1,4,$2,$3,$4,$5,$6,$7,$8,$9,$2,$3,0*
0 Add four circle primitives for the rounded corners*
1,1,$1+$1,$2,$3*
1,1,$1+$1,$4,$5*
1,1,$1+$1,$6,$7*
1,1,$1+$1,$8,$9*
0 Add four rect primitives between the rounded corners*
20,1,$1+$1,$2,$3,$4,$5,0*
20,1,$1+$1,$4,$5,$6,$7,0*
20,1,$1+$1,$6,$7,$8,$9,0*
20,1,$1+$1,$8,$9,$2,$3,0*%
%AMFreePoly0*
4,1,19,0.500000,-0.750000,0.000000,-0.750000,0.000000,-0.744911,-0.071157,-0.744912,-0.207708,-0.704816,-0.327430,-0.627875,-0.420627,-0.520320,-0.479746,-0.390866,-0.500000,-0.250000,-0.500000,0.250000,-0.479746,0.390866,-0.420627,0.520320,-0.327430,0.627875,-0.207708,0.704816,-0.071157,0.744911,0.000000,0.744911,0.000000,0.750000,0.500000,0.750000,0.500000,-0.750000,0.500000,-0.750000,
$1*%
%AMFreePoly1*
4,1,19,0.000000,0.744911,0.071157,0.744912,0.207708,0.704816,0.327430,0.627875,0.420627,0.520320,0.479746,0.390866,0.500000,0.250000,0.500000,-0.250000,0.479746,-0.390866,0.420627,-0.520320,0.327430,-0.627875,0.207708,-0.704816,0.071157,-0.744911,0.000000,-0.744911,0.000000,-0.750000,-0.500000,-0.750000,-0.500000,0.750000,0.000000,0.750000,0.000000,0.744911,0.000000,0.744911,
$1*%
G04 Aperture macros list end*
%ADD10RoundRect,0.200000X-0.227408X0.252805X-0.310573X-0.138454X0.227408X-0.252805X0.310573X0.138454X0*%
%ADD11RoundRect,0.200000X0.252805X0.227408X-0.138454X0.310573X-0.252805X-0.227408X0.138454X-0.310573X0*%
%ADD12R,1.700000X1.700000*%
%ADD13O,1.700000X1.700000*%
%ADD14C,1.701800*%
%ADD15C,3.429000*%
%ADD16C,0.990600*%
%ADD17C,2.032000*%
%ADD18C,3.200000*%
%ADD19C,0.650000*%
%ADD20RoundRect,0.500000X0.000000X0.600000X0.000000X0.600000X0.000000X-0.600000X0.000000X-0.600000X0*%
%ADD21RoundRect,0.500000X0.000000X0.300000X0.000000X0.300000X0.000000X-0.300000X0.000000X-0.300000X0*%
%ADD22RoundRect,0.225000X0.320025X-0.298050X0.413585X0.142116X-0.320025X0.298050X-0.413585X-0.142116X0*%
%ADD23RoundRect,0.225000X0.413585X-0.142116X0.320025X0.298050X-0.413585X0.142116X-0.320025X-0.298050X0*%
%ADD24FreePoly0,168.000000*%
%ADD25FreePoly1,168.000000*%
%ADD26RoundRect,0.225000X0.436275X-0.030230X0.231980X0.370723X-0.436275X0.030230X-0.231980X-0.370723X0*%
%ADD27RoundRect,0.225000X-0.225000X-0.250000X0.225000X-0.250000X0.225000X0.250000X-0.225000X0.250000X0*%
%ADD28RoundRect,0.150000X-0.605848X-0.024574X0.543475X-0.268870X0.605848X0.024574X-0.543475X0.268870X0*%
%ADD29RoundRect,0.218750X0.218750X0.381250X-0.218750X0.381250X-0.218750X-0.381250X0.218750X-0.381250X0*%
%ADD30RoundRect,0.225000X0.231980X-0.370723X0.436275X0.030230X-0.231980X0.370723X-0.436275X-0.030230X0*%
G04 APERTURE END LIST*
D10*
%TO.C,R8*%
X98671527Y-72193028D03*
X98328473Y-73806972D03*
%TD*%
D11*
%TO.C,R7*%
X96056972Y-72671527D03*
X94443028Y-72328473D03*
%TD*%
%TO.C,R5*%
X95556972Y-74921527D03*
X93943028Y-74578473D03*
%TD*%
D12*
%TO.C,J2*%
X203849987Y-138750000D03*
D13*
X201309987Y-138750000D03*
X198769987Y-138750000D03*
X196229987Y-138750000D03*
%TD*%
D14*
%TO.C,SW38*%
X284634453Y-83784728D03*
D15*
X290014265Y-82641214D03*
D16*
X294246966Y-77447695D03*
D14*
X295394077Y-81497700D03*
D17*
X291240944Y-88412285D03*
X285913591Y-87397733D03*
%TD*%
D14*
%TO.C,SW1*%
X90903533Y-62994472D03*
D15*
X96283345Y-64137986D03*
D16*
X102262505Y-61115065D03*
D14*
X101663157Y-65281500D03*
D17*
X95056666Y-69909057D03*
X90602543Y-66815388D03*
%TD*%
D14*
%TO.C,SW40*%
X298336846Y-65281500D03*
D15*
X303716658Y-64137986D03*
D16*
X307949359Y-58944467D03*
D14*
X309096470Y-62994472D03*
D17*
X304943337Y-69909057D03*
X299615984Y-68894505D03*
%TD*%
D14*
%TO.C,SW9*%
X118412274Y-99511854D03*
D15*
X123792086Y-100655368D03*
D16*
X129771246Y-97632447D03*
D14*
X129171898Y-101798882D03*
D17*
X122565407Y-106426439D03*
X118111284Y-103332770D03*
%TD*%
D14*
%TO.C,SW11*%
X139391576Y-83779915D03*
D15*
X144771388Y-84923429D03*
D16*
X150750548Y-81900508D03*
D14*
X150151200Y-86066943D03*
D17*
X143544709Y-90694500D03*
X139090586Y-87600831D03*
%TD*%
D14*
%TO.C,SW16*%
X152158367Y-106684807D03*
D15*
X157538179Y-107828321D03*
D16*
X163517339Y-104805400D03*
D14*
X162917991Y-108971835D03*
D17*
X156311500Y-113599392D03*
X151857377Y-110505723D03*
%TD*%
D14*
%TO.C,SW34*%
X263655151Y-68052790D03*
D15*
X269034963Y-66909276D03*
D16*
X273267664Y-61715757D03*
D14*
X274414775Y-65765762D03*
D17*
X270261642Y-72680347D03*
X264934289Y-71665795D03*
%TD*%
D14*
%TO.C,SW15*%
X155744843Y-89811761D03*
D15*
X161124655Y-90955275D03*
D16*
X167103815Y-87932354D03*
D14*
X166504467Y-92098789D03*
D17*
X159897976Y-96726346D03*
X155443853Y-93632677D03*
%TD*%
D14*
%TO.C,SW20*%
X169447236Y-108314989D03*
D15*
X174827048Y-109458503D03*
D16*
X180806208Y-106435582D03*
D14*
X180206860Y-110602017D03*
D17*
X173600369Y-115229574D03*
X169146246Y-112135905D03*
%TD*%
D14*
%TO.C,SW14*%
X159331320Y-72938715D03*
D15*
X164711132Y-74082229D03*
D16*
X170690292Y-71059308D03*
D14*
X170090944Y-75225743D03*
D17*
X163484453Y-79853300D03*
X159030330Y-76759631D03*
%TD*%
D14*
%TO.C,SW32*%
X253435279Y-102939989D03*
D15*
X258815091Y-101796475D03*
D16*
X263047792Y-96602956D03*
D14*
X264194903Y-100652961D03*
D17*
X260041770Y-107567546D03*
X254714417Y-106552994D03*
%TD*%
D14*
%TO.C,SW3*%
X83730580Y-96740565D03*
D15*
X89110392Y-97884079D03*
D16*
X95089552Y-94861158D03*
D14*
X94490204Y-99027593D03*
D17*
X87883713Y-103655150D03*
X83429590Y-100561481D03*
%TD*%
D14*
%TO.C,SW21*%
X172969724Y-131122243D03*
D15*
X177870260Y-133619191D03*
D16*
X184428074Y-132246794D03*
D14*
X182770796Y-136116139D03*
D17*
X175191716Y-138876129D03*
X171690063Y-134735063D03*
%TD*%
D14*
%TO.C,SW5*%
X104605926Y-81497700D03*
D15*
X109985738Y-82641214D03*
D16*
X115964898Y-79618293D03*
D14*
X115365550Y-83784728D03*
D17*
X108759059Y-88412285D03*
X104304936Y-85318616D03*
%TD*%
D14*
%TO.C,SW36*%
X270828105Y-101798882D03*
D15*
X276207917Y-100655368D03*
D16*
X280440618Y-95461849D03*
D14*
X281587729Y-99511854D03*
D17*
X277434596Y-106426439D03*
X272107243Y-105411887D03*
%TD*%
D14*
%TO.C,SW7*%
X125585228Y-65765762D03*
D15*
X130965040Y-66909276D03*
D16*
X136944200Y-63886355D03*
D14*
X136344852Y-68052790D03*
D17*
X129738361Y-72680347D03*
X125284238Y-69586678D03*
%TD*%
D14*
%TO.C,SW4*%
X108192402Y-64624654D03*
D15*
X113572214Y-65768168D03*
D16*
X119551374Y-62745247D03*
D14*
X118952026Y-66911682D03*
D17*
X112345535Y-71539239D03*
X107891412Y-68445570D03*
%TD*%
D14*
%TO.C,SW19*%
X173033713Y-91441942D03*
D15*
X178413525Y-92585456D03*
D16*
X184392685Y-89562535D03*
D14*
X183793337Y-93728970D03*
D17*
X177186846Y-98356527D03*
X172732723Y-95262858D03*
%TD*%
D14*
%TO.C,SW27*%
X233495536Y-92098789D03*
D15*
X238875348Y-90955275D03*
D16*
X243108049Y-85761756D03*
D14*
X244255160Y-89811761D03*
D17*
X240102027Y-96726346D03*
X234774674Y-95711794D03*
%TD*%
D14*
%TO.C,SW17*%
X148571890Y-123557853D03*
D15*
X153951702Y-124701367D03*
D16*
X159930862Y-121678446D03*
D14*
X159331514Y-125844881D03*
D17*
X152725023Y-130472438D03*
X148270900Y-127378769D03*
%TD*%
D14*
%TO.C,SW22*%
X212620189Y-76855924D03*
D15*
X218000001Y-75712410D03*
D16*
X222232702Y-70518891D03*
D14*
X223379813Y-74568896D03*
D17*
X219226680Y-81483481D03*
X213899327Y-80468929D03*
%TD*%
D14*
%TO.C,SW23*%
X216206666Y-93728970D03*
D15*
X221586478Y-92585456D03*
D16*
X225819179Y-87391937D03*
D14*
X226966290Y-91441942D03*
D17*
X222813157Y-98356527D03*
X217485804Y-97341975D03*
%TD*%
D14*
%TO.C,SW2*%
X87317056Y-79867519D03*
D15*
X92696868Y-81011033D03*
D16*
X98676028Y-77988112D03*
D14*
X98076680Y-82154547D03*
D17*
X91470189Y-86782104D03*
X87016066Y-83688435D03*
%TD*%
D18*
%TO.C,H6*%
X283572322Y-113658369D03*
%TD*%
D14*
%TO.C,SW25*%
X217229207Y-136116139D03*
D15*
X222129743Y-133619191D03*
D16*
X224874037Y-127507133D03*
D14*
X227030279Y-131122243D03*
D17*
X224808287Y-138876129D03*
X219399874Y-139274968D03*
%TD*%
D14*
%TO.C,SW33*%
X257021756Y-119813036D03*
D15*
X262401568Y-118669522D03*
D16*
X266634269Y-113476003D03*
D14*
X267781380Y-117526008D03*
D17*
X263628247Y-124440593D03*
X258300894Y-123426041D03*
%TD*%
D18*
%TO.C,H1*%
X104960704Y-55298957D03*
%TD*%
D14*
%TO.C,SW18*%
X176620189Y-74568896D03*
D15*
X182000001Y-75712410D03*
D16*
X187979161Y-72689489D03*
D14*
X187379813Y-76855924D03*
D17*
X180773322Y-81483481D03*
X176319199Y-78389812D03*
%TD*%
D14*
%TO.C,SW10*%
X142978053Y-66906869D03*
D15*
X148357865Y-68050383D03*
D16*
X154337025Y-65027462D03*
D14*
X153737677Y-69193897D03*
D17*
X147131186Y-73821454D03*
X142677063Y-70727785D03*
%TD*%
D18*
%TO.C,H5*%
X295039299Y-55298957D03*
%TD*%
D14*
%TO.C,SW8*%
X121998751Y-82638808D03*
D15*
X127378563Y-83782322D03*
D16*
X133357723Y-80759401D03*
D14*
X132758375Y-84925836D03*
D17*
X126151884Y-89553393D03*
X121697761Y-86459724D03*
%TD*%
D14*
%TO.C,SW42*%
X305509799Y-99027593D03*
D15*
X310889611Y-97884079D03*
D16*
X315122312Y-92690560D03*
D14*
X316269423Y-96740565D03*
D17*
X312116290Y-103655150D03*
X306788937Y-102640598D03*
%TD*%
D19*
%TO.C,J1*%
X202900000Y-66150000D03*
X197100000Y-66150000D03*
D20*
X204320000Y-66680000D03*
D21*
X204320000Y-62500000D03*
D20*
X195680000Y-66680000D03*
D21*
X195680000Y-62500000D03*
%TD*%
D14*
%TO.C,SW12*%
X135805100Y-100652961D03*
D15*
X141184912Y-101796475D03*
D16*
X147164072Y-98773554D03*
D14*
X146564724Y-102939989D03*
D17*
X139958233Y-107567546D03*
X135504110Y-104473877D03*
%TD*%
D14*
%TO.C,SW39*%
X288220930Y-100657774D03*
D15*
X293600742Y-99514260D03*
D16*
X297833443Y-94320741D03*
D14*
X298980554Y-98370746D03*
D17*
X294827421Y-105285331D03*
X289500068Y-104270779D03*
%TD*%
D14*
%TO.C,SW24*%
X219793143Y-110602017D03*
D15*
X225172955Y-109458503D03*
D16*
X229405656Y-104264984D03*
D14*
X230552767Y-108314989D03*
D17*
X226399634Y-115229574D03*
X221072281Y-114215022D03*
%TD*%
D14*
%TO.C,SW35*%
X267241628Y-84925836D03*
D15*
X272621440Y-83782322D03*
D16*
X276854141Y-78588803D03*
D14*
X278001252Y-82638808D03*
D17*
X273848119Y-89553393D03*
X268520766Y-88538841D03*
%TD*%
D14*
%TO.C,SW28*%
X237082012Y-108971835D03*
D15*
X242461824Y-107828321D03*
D16*
X246694525Y-102634802D03*
D14*
X247841636Y-106684807D03*
D17*
X243688503Y-113599392D03*
X238361150Y-112584840D03*
%TD*%
D14*
%TO.C,SW37*%
X281047977Y-66911682D03*
D15*
X286427789Y-65768168D03*
D16*
X290660490Y-60574649D03*
D14*
X291807601Y-64624654D03*
D17*
X287654468Y-71539239D03*
X282327115Y-70524687D03*
%TD*%
D18*
%TO.C,H3*%
X200000002Y-76336118D03*
%TD*%
D14*
%TO.C,SW13*%
X132218623Y-117526008D03*
D15*
X137598435Y-118669522D03*
D16*
X143577595Y-115646601D03*
D14*
X142978247Y-119813036D03*
D17*
X136371756Y-124440593D03*
X131917633Y-121346924D03*
%TD*%
D14*
%TO.C,SW26*%
X229909059Y-75225743D03*
D15*
X235288871Y-74082229D03*
D16*
X239521572Y-68888710D03*
D14*
X240668683Y-72938715D03*
D17*
X236515550Y-79853300D03*
X231188197Y-78838748D03*
%TD*%
D14*
%TO.C,SW6*%
X101019449Y-98370746D03*
D15*
X106399261Y-99514260D03*
D16*
X112378421Y-96491339D03*
D14*
X111779073Y-100657774D03*
D17*
X105172582Y-105285331D03*
X100718459Y-102191662D03*
%TD*%
D18*
%TO.C,H2*%
X116427681Y-113658369D03*
%TD*%
D14*
%TO.C,SW30*%
X246262326Y-69193897D03*
D15*
X251642138Y-68050383D03*
D16*
X255874839Y-62856864D03*
D14*
X257021950Y-66906869D03*
D17*
X252868817Y-73821454D03*
X247541464Y-72806902D03*
%TD*%
D14*
%TO.C,SW31*%
X249848803Y-86066943D03*
D15*
X255228615Y-84923429D03*
D16*
X259461316Y-79729910D03*
D14*
X260608427Y-83779915D03*
D17*
X256455294Y-90694500D03*
X251127941Y-89679948D03*
%TD*%
D18*
%TO.C,H4*%
X200000002Y-133098867D03*
%TD*%
D14*
%TO.C,SW41*%
X301923323Y-82154547D03*
D15*
X307303135Y-81011033D03*
D16*
X311535836Y-75817514D03*
D14*
X312682947Y-79867519D03*
D17*
X308529814Y-86782104D03*
X303202461Y-85767552D03*
%TD*%
D14*
%TO.C,SW29*%
X240668489Y-125844881D03*
D15*
X246048301Y-124701367D03*
D16*
X250281002Y-119507848D03*
D14*
X251428113Y-123557853D03*
D17*
X247274980Y-130472438D03*
X241947627Y-129457886D03*
%TD*%
D22*
%TO.C,D9*%
X128590032Y-108626312D03*
X129276140Y-105398424D03*
%TD*%
D23*
%TO.C,D42*%
X318514665Y-103215023D03*
X317828557Y-99987135D03*
%TD*%
%TO.C,D40*%
X311341712Y-69468930D03*
X310655604Y-66241042D03*
%TD*%
D22*
%TO.C,D10*%
X153155811Y-76021327D03*
X153841919Y-72793439D03*
%TD*%
D24*
%TO.C,JP2*%
X92885796Y-70385143D03*
D25*
X91614204Y-70114857D03*
%TD*%
D23*
%TO.C,D29*%
X253673355Y-130032311D03*
X252987247Y-126804423D03*
%TD*%
%TO.C,D34*%
X276660017Y-72240220D03*
X275973909Y-69012332D03*
%TD*%
D26*
%TO.C,D25*%
X230873827Y-136795352D03*
X229375659Y-133855030D03*
%TD*%
D23*
%TO.C,D37*%
X294052843Y-71099112D03*
X293366735Y-67871224D03*
%TD*%
%TO.C,D23*%
X229211532Y-97916400D03*
X228525424Y-94688512D03*
%TD*%
D22*
%TO.C,D4*%
X118370160Y-73739112D03*
X119056268Y-70511224D03*
%TD*%
%TO.C,D3*%
X93908338Y-105855023D03*
X94594446Y-102627135D03*
%TD*%
D23*
%TO.C,D32*%
X266440145Y-107127419D03*
X265754037Y-103899531D03*
%TD*%
D22*
%TO.C,D13*%
X142396381Y-126640466D03*
X143082489Y-123412578D03*
%TD*%
D23*
%TO.C,D39*%
X301225796Y-104845204D03*
X300539688Y-101617316D03*
%TD*%
%TO.C,D38*%
X297639319Y-87972158D03*
X296953211Y-84744270D03*
%TD*%
D22*
%TO.C,D7*%
X135762986Y-74880220D03*
X136449094Y-71652332D03*
%TD*%
%TO.C,D2*%
X97494814Y-88981977D03*
X98180922Y-85754089D03*
%TD*%
%TO.C,D19*%
X183211471Y-100556400D03*
X183897579Y-97328512D03*
%TD*%
D23*
%TO.C,D28*%
X250086878Y-113159265D03*
X249400770Y-109931377D03*
%TD*%
D22*
%TO.C,D1*%
X101081291Y-72108930D03*
X101767399Y-68881042D03*
%TD*%
D24*
%TO.C,JP1*%
X89135796Y-69635143D03*
D25*
X87864204Y-69364857D03*
%TD*%
D22*
%TO.C,D8*%
X132176509Y-91753266D03*
X132862617Y-88525378D03*
%TD*%
D23*
%TO.C,D24*%
X232798009Y-114789447D03*
X232111901Y-111561559D03*
%TD*%
%TO.C,D27*%
X246500402Y-96286219D03*
X245814294Y-93058331D03*
%TD*%
D22*
%TO.C,D5*%
X114783684Y-90612158D03*
X115469792Y-87384270D03*
%TD*%
%TO.C,D15*%
X165922601Y-98926219D03*
X166608709Y-95698331D03*
%TD*%
D27*
%TO.C,C15*%
X198925000Y-102000000D03*
X200475000Y-102000000D03*
%TD*%
D23*
%TO.C,D31*%
X262853669Y-90254373D03*
X262167561Y-87026485D03*
%TD*%
D28*
%TO.C,Q2*%
X97385471Y-69984323D03*
X97780503Y-68125843D03*
X99417013Y-69444917D03*
%TD*%
D29*
%TO.C,L1*%
X201062500Y-103750000D03*
X198937500Y-103750000D03*
%TD*%
D23*
%TO.C,D26*%
X242913925Y-79413173D03*
X242227817Y-76185285D03*
%TD*%
%TO.C,D30*%
X259267192Y-73381327D03*
X258581084Y-70153439D03*
%TD*%
D22*
%TO.C,D18*%
X186797947Y-83683354D03*
X187484055Y-80455466D03*
%TD*%
D23*
%TO.C,D33*%
X270026622Y-124000466D03*
X269340514Y-120772578D03*
%TD*%
D22*
%TO.C,D14*%
X169509078Y-82053173D03*
X170195186Y-78825285D03*
%TD*%
%TO.C,D11*%
X149569334Y-92894373D03*
X150255442Y-89666485D03*
%TD*%
D23*
%TO.C,D22*%
X225625055Y-81043354D03*
X224938947Y-77815466D03*
%TD*%
D30*
%TO.C,D21*%
X180441176Y-142560352D03*
X181939344Y-139620030D03*
%TD*%
D23*
%TO.C,D36*%
X283832971Y-105986312D03*
X283146863Y-102758424D03*
%TD*%
%TO.C,D35*%
X280246494Y-89113266D03*
X279560386Y-85885378D03*
%TD*%
D22*
%TO.C,D17*%
X158749648Y-132672311D03*
X159435756Y-129444423D03*
%TD*%
%TO.C,D16*%
X162336125Y-115799265D03*
X163022233Y-112571377D03*
%TD*%
%TO.C,D20*%
X179624994Y-117429447D03*
X180311102Y-114201559D03*
%TD*%
%TO.C,D12*%
X145982858Y-109767419D03*
X146668966Y-106539531D03*
%TD*%
%TO.C,D6*%
X111197207Y-107485204D03*
X111883315Y-104257316D03*
%TD*%
D23*
%TO.C,D41*%
X314928189Y-86341977D03*
X314242081Y-83114089D03*
%TD*%
M02*
