%TF.GenerationSoftware,KiCad,Pcbnew,7.0.2*%
%TF.CreationDate,2023-06-25T00:33:16+10:00*%
%TF.ProjectId,keyboard,6b657962-6f61-4726-942e-6b696361645f,v1.0.0*%
%TF.SameCoordinates,Original*%
%TF.FileFunction,Legend,Top*%
%TF.FilePolarity,Positive*%
%FSLAX46Y46*%
G04 Gerber Fmt 4.6, Leading zero omitted, Abs format (unit mm)*
G04 Created by KiCad (PCBNEW 7.0.2) date 2023-06-25 00:33:16*
%MOMM*%
%LPD*%
G01*
G04 APERTURE LIST*
%ADD10C,0.175000*%
%ADD11C,0.150000*%
%ADD12C,0.250000*%
%ADD13C,0.120000*%
%ADD14C,0.100000*%
%ADD15C,0.020000*%
G04 APERTURE END LIST*
D10*
X203514333Y-137350000D02*
X203514333Y-136916666D01*
X203514333Y-136916666D02*
X203781000Y-137150000D01*
X203781000Y-137150000D02*
X203781000Y-137050000D01*
X203781000Y-137050000D02*
X203814333Y-136983333D01*
X203814333Y-136983333D02*
X203847666Y-136950000D01*
X203847666Y-136950000D02*
X203914333Y-136916666D01*
X203914333Y-136916666D02*
X204081000Y-136916666D01*
X204081000Y-136916666D02*
X204147666Y-136950000D01*
X204147666Y-136950000D02*
X204181000Y-136983333D01*
X204181000Y-136983333D02*
X204214333Y-137050000D01*
X204214333Y-137050000D02*
X204214333Y-137250000D01*
X204214333Y-137250000D02*
X204181000Y-137316666D01*
X204181000Y-137316666D02*
X204147666Y-137350000D01*
X204147666Y-136616666D02*
X204181000Y-136583333D01*
X204181000Y-136583333D02*
X204214333Y-136616666D01*
X204214333Y-136616666D02*
X204181000Y-136649999D01*
X204181000Y-136649999D02*
X204147666Y-136616666D01*
X204147666Y-136616666D02*
X204214333Y-136616666D01*
X203514333Y-136350000D02*
X203514333Y-135916666D01*
X203514333Y-135916666D02*
X203781000Y-136150000D01*
X203781000Y-136150000D02*
X203781000Y-136050000D01*
X203781000Y-136050000D02*
X203814333Y-135983333D01*
X203814333Y-135983333D02*
X203847666Y-135950000D01*
X203847666Y-135950000D02*
X203914333Y-135916666D01*
X203914333Y-135916666D02*
X204081000Y-135916666D01*
X204081000Y-135916666D02*
X204147666Y-135950000D01*
X204147666Y-135950000D02*
X204181000Y-135983333D01*
X204181000Y-135983333D02*
X204214333Y-136050000D01*
X204214333Y-136050000D02*
X204214333Y-136250000D01*
X204214333Y-136250000D02*
X204181000Y-136316666D01*
X204181000Y-136316666D02*
X204147666Y-136350000D01*
X203514333Y-135716666D02*
X204214333Y-135483333D01*
X204214333Y-135483333D02*
X203514333Y-135249999D01*
X200947666Y-136966666D02*
X200914333Y-137033333D01*
X200914333Y-137033333D02*
X200914333Y-137133333D01*
X200914333Y-137133333D02*
X200947666Y-137233333D01*
X200947666Y-137233333D02*
X201014333Y-137300000D01*
X201014333Y-137300000D02*
X201081000Y-137333333D01*
X201081000Y-137333333D02*
X201214333Y-137366666D01*
X201214333Y-137366666D02*
X201314333Y-137366666D01*
X201314333Y-137366666D02*
X201447666Y-137333333D01*
X201447666Y-137333333D02*
X201514333Y-137300000D01*
X201514333Y-137300000D02*
X201581000Y-137233333D01*
X201581000Y-137233333D02*
X201614333Y-137133333D01*
X201614333Y-137133333D02*
X201614333Y-137066666D01*
X201614333Y-137066666D02*
X201581000Y-136966666D01*
X201581000Y-136966666D02*
X201547666Y-136933333D01*
X201547666Y-136933333D02*
X201314333Y-136933333D01*
X201314333Y-136933333D02*
X201314333Y-137066666D01*
X201614333Y-136633333D02*
X200914333Y-136633333D01*
X200914333Y-136633333D02*
X201614333Y-136233333D01*
X201614333Y-136233333D02*
X200914333Y-136233333D01*
X201614333Y-135900000D02*
X200914333Y-135900000D01*
X200914333Y-135900000D02*
X200914333Y-135733333D01*
X200914333Y-135733333D02*
X200947666Y-135633333D01*
X200947666Y-135633333D02*
X201014333Y-135566667D01*
X201014333Y-135566667D02*
X201081000Y-135533333D01*
X201081000Y-135533333D02*
X201214333Y-135500000D01*
X201214333Y-135500000D02*
X201314333Y-135500000D01*
X201314333Y-135500000D02*
X201447666Y-135533333D01*
X201447666Y-135533333D02*
X201514333Y-135566667D01*
X201514333Y-135566667D02*
X201581000Y-135633333D01*
X201581000Y-135633333D02*
X201614333Y-135733333D01*
X201614333Y-135733333D02*
X201614333Y-135900000D01*
X199114333Y-137333333D02*
X198414333Y-137333333D01*
X198414333Y-136866667D02*
X198414333Y-136733333D01*
X198414333Y-136733333D02*
X198447666Y-136666667D01*
X198447666Y-136666667D02*
X198514333Y-136600000D01*
X198514333Y-136600000D02*
X198647666Y-136566667D01*
X198647666Y-136566667D02*
X198881000Y-136566667D01*
X198881000Y-136566667D02*
X199014333Y-136600000D01*
X199014333Y-136600000D02*
X199081000Y-136666667D01*
X199081000Y-136666667D02*
X199114333Y-136733333D01*
X199114333Y-136733333D02*
X199114333Y-136866667D01*
X199114333Y-136866667D02*
X199081000Y-136933333D01*
X199081000Y-136933333D02*
X199014333Y-137000000D01*
X199014333Y-137000000D02*
X198881000Y-137033333D01*
X198881000Y-137033333D02*
X198647666Y-137033333D01*
X198647666Y-137033333D02*
X198514333Y-137000000D01*
X198514333Y-137000000D02*
X198447666Y-136933333D01*
X198447666Y-136933333D02*
X198414333Y-136866667D01*
X196497666Y-136933333D02*
X196531000Y-136966666D01*
X196531000Y-136966666D02*
X196564333Y-137066666D01*
X196564333Y-137066666D02*
X196564333Y-137133333D01*
X196564333Y-137133333D02*
X196531000Y-137233333D01*
X196531000Y-137233333D02*
X196464333Y-137300000D01*
X196464333Y-137300000D02*
X196397666Y-137333333D01*
X196397666Y-137333333D02*
X196264333Y-137366666D01*
X196264333Y-137366666D02*
X196164333Y-137366666D01*
X196164333Y-137366666D02*
X196031000Y-137333333D01*
X196031000Y-137333333D02*
X195964333Y-137300000D01*
X195964333Y-137300000D02*
X195897666Y-137233333D01*
X195897666Y-137233333D02*
X195864333Y-137133333D01*
X195864333Y-137133333D02*
X195864333Y-137066666D01*
X195864333Y-137066666D02*
X195897666Y-136966666D01*
X195897666Y-136966666D02*
X195931000Y-136933333D01*
X196564333Y-136300000D02*
X196564333Y-136633333D01*
X196564333Y-136633333D02*
X195864333Y-136633333D01*
X196564333Y-136066666D02*
X195864333Y-136066666D01*
X196564333Y-135666666D02*
X196164333Y-135966666D01*
X195864333Y-135666666D02*
X196264333Y-136066666D01*
D11*
X195398809Y-99502619D02*
X195398809Y-100216904D01*
X195398809Y-100216904D02*
X195351190Y-100359761D01*
X195351190Y-100359761D02*
X195255952Y-100455000D01*
X195255952Y-100455000D02*
X195113095Y-100502619D01*
X195113095Y-100502619D02*
X195017857Y-100502619D01*
X196351190Y-100502619D02*
X195875000Y-100502619D01*
X195875000Y-100502619D02*
X195875000Y-99502619D01*
X197255952Y-100407380D02*
X197208333Y-100455000D01*
X197208333Y-100455000D02*
X197065476Y-100502619D01*
X197065476Y-100502619D02*
X196970238Y-100502619D01*
X196970238Y-100502619D02*
X196827381Y-100455000D01*
X196827381Y-100455000D02*
X196732143Y-100359761D01*
X196732143Y-100359761D02*
X196684524Y-100264523D01*
X196684524Y-100264523D02*
X196636905Y-100074047D01*
X196636905Y-100074047D02*
X196636905Y-99931190D01*
X196636905Y-99931190D02*
X196684524Y-99740714D01*
X196684524Y-99740714D02*
X196732143Y-99645476D01*
X196732143Y-99645476D02*
X196827381Y-99550238D01*
X196827381Y-99550238D02*
X196970238Y-99502619D01*
X196970238Y-99502619D02*
X197065476Y-99502619D01*
X197065476Y-99502619D02*
X197208333Y-99550238D01*
X197208333Y-99550238D02*
X197255952Y-99597857D01*
X197970238Y-99502619D02*
X197970238Y-100216904D01*
X197970238Y-100216904D02*
X197922619Y-100359761D01*
X197922619Y-100359761D02*
X197827381Y-100455000D01*
X197827381Y-100455000D02*
X197684524Y-100502619D01*
X197684524Y-100502619D02*
X197589286Y-100502619D01*
X198922619Y-100502619D02*
X198446429Y-100502619D01*
X198446429Y-100502619D02*
X198446429Y-99502619D01*
X199827381Y-100407380D02*
X199779762Y-100455000D01*
X199779762Y-100455000D02*
X199636905Y-100502619D01*
X199636905Y-100502619D02*
X199541667Y-100502619D01*
X199541667Y-100502619D02*
X199398810Y-100455000D01*
X199398810Y-100455000D02*
X199303572Y-100359761D01*
X199303572Y-100359761D02*
X199255953Y-100264523D01*
X199255953Y-100264523D02*
X199208334Y-100074047D01*
X199208334Y-100074047D02*
X199208334Y-99931190D01*
X199208334Y-99931190D02*
X199255953Y-99740714D01*
X199255953Y-99740714D02*
X199303572Y-99645476D01*
X199303572Y-99645476D02*
X199398810Y-99550238D01*
X199398810Y-99550238D02*
X199541667Y-99502619D01*
X199541667Y-99502619D02*
X199636905Y-99502619D01*
X199636905Y-99502619D02*
X199779762Y-99550238D01*
X199779762Y-99550238D02*
X199827381Y-99597857D01*
X200541667Y-99502619D02*
X200541667Y-100216904D01*
X200541667Y-100216904D02*
X200494048Y-100359761D01*
X200494048Y-100359761D02*
X200398810Y-100455000D01*
X200398810Y-100455000D02*
X200255953Y-100502619D01*
X200255953Y-100502619D02*
X200160715Y-100502619D01*
X201494048Y-100502619D02*
X201017858Y-100502619D01*
X201017858Y-100502619D02*
X201017858Y-99502619D01*
X202398810Y-100407380D02*
X202351191Y-100455000D01*
X202351191Y-100455000D02*
X202208334Y-100502619D01*
X202208334Y-100502619D02*
X202113096Y-100502619D01*
X202113096Y-100502619D02*
X201970239Y-100455000D01*
X201970239Y-100455000D02*
X201875001Y-100359761D01*
X201875001Y-100359761D02*
X201827382Y-100264523D01*
X201827382Y-100264523D02*
X201779763Y-100074047D01*
X201779763Y-100074047D02*
X201779763Y-99931190D01*
X201779763Y-99931190D02*
X201827382Y-99740714D01*
X201827382Y-99740714D02*
X201875001Y-99645476D01*
X201875001Y-99645476D02*
X201970239Y-99550238D01*
X201970239Y-99550238D02*
X202113096Y-99502619D01*
X202113096Y-99502619D02*
X202208334Y-99502619D01*
X202208334Y-99502619D02*
X202351191Y-99550238D01*
X202351191Y-99550238D02*
X202398810Y-99597857D01*
X203113096Y-99502619D02*
X203113096Y-100216904D01*
X203113096Y-100216904D02*
X203065477Y-100359761D01*
X203065477Y-100359761D02*
X202970239Y-100455000D01*
X202970239Y-100455000D02*
X202827382Y-100502619D01*
X202827382Y-100502619D02*
X202732144Y-100502619D01*
X204065477Y-100502619D02*
X203589287Y-100502619D01*
X203589287Y-100502619D02*
X203589287Y-99502619D01*
X204970239Y-100407380D02*
X204922620Y-100455000D01*
X204922620Y-100455000D02*
X204779763Y-100502619D01*
X204779763Y-100502619D02*
X204684525Y-100502619D01*
X204684525Y-100502619D02*
X204541668Y-100455000D01*
X204541668Y-100455000D02*
X204446430Y-100359761D01*
X204446430Y-100359761D02*
X204398811Y-100264523D01*
X204398811Y-100264523D02*
X204351192Y-100074047D01*
X204351192Y-100074047D02*
X204351192Y-99931190D01*
X204351192Y-99931190D02*
X204398811Y-99740714D01*
X204398811Y-99740714D02*
X204446430Y-99645476D01*
X204446430Y-99645476D02*
X204541668Y-99550238D01*
X204541668Y-99550238D02*
X204684525Y-99502619D01*
X204684525Y-99502619D02*
X204779763Y-99502619D01*
X204779763Y-99502619D02*
X204922620Y-99550238D01*
X204922620Y-99550238D02*
X204970239Y-99597857D01*
D12*
X204811904Y-128925238D02*
X204716666Y-128877619D01*
X204716666Y-128877619D02*
X204573809Y-128877619D01*
X204573809Y-128877619D02*
X204430952Y-128925238D01*
X204430952Y-128925238D02*
X204335714Y-129020476D01*
X204335714Y-129020476D02*
X204288095Y-129115714D01*
X204288095Y-129115714D02*
X204240476Y-129306190D01*
X204240476Y-129306190D02*
X204240476Y-129449047D01*
X204240476Y-129449047D02*
X204288095Y-129639523D01*
X204288095Y-129639523D02*
X204335714Y-129734761D01*
X204335714Y-129734761D02*
X204430952Y-129830000D01*
X204430952Y-129830000D02*
X204573809Y-129877619D01*
X204573809Y-129877619D02*
X204669047Y-129877619D01*
X204669047Y-129877619D02*
X204811904Y-129830000D01*
X204811904Y-129830000D02*
X204859523Y-129782380D01*
X204859523Y-129782380D02*
X204859523Y-129449047D01*
X204859523Y-129449047D02*
X204669047Y-129449047D01*
X205288095Y-129877619D02*
X205288095Y-128877619D01*
X205288095Y-128877619D02*
X205859523Y-129877619D01*
X205859523Y-129877619D02*
X205859523Y-128877619D01*
X206335714Y-129877619D02*
X206335714Y-128877619D01*
X206335714Y-128877619D02*
X206573809Y-128877619D01*
X206573809Y-128877619D02*
X206716666Y-128925238D01*
X206716666Y-128925238D02*
X206811904Y-129020476D01*
X206811904Y-129020476D02*
X206859523Y-129115714D01*
X206859523Y-129115714D02*
X206907142Y-129306190D01*
X206907142Y-129306190D02*
X206907142Y-129449047D01*
X206907142Y-129449047D02*
X206859523Y-129639523D01*
X206859523Y-129639523D02*
X206811904Y-129734761D01*
X206811904Y-129734761D02*
X206716666Y-129830000D01*
X206716666Y-129830000D02*
X206573809Y-129877619D01*
X206573809Y-129877619D02*
X206335714Y-129877619D01*
X197964285Y-128877619D02*
X197488095Y-128877619D01*
X197488095Y-128877619D02*
X197440476Y-129353809D01*
X197440476Y-129353809D02*
X197488095Y-129306190D01*
X197488095Y-129306190D02*
X197583333Y-129258571D01*
X197583333Y-129258571D02*
X197821428Y-129258571D01*
X197821428Y-129258571D02*
X197916666Y-129306190D01*
X197916666Y-129306190D02*
X197964285Y-129353809D01*
X197964285Y-129353809D02*
X198011904Y-129449047D01*
X198011904Y-129449047D02*
X198011904Y-129687142D01*
X198011904Y-129687142D02*
X197964285Y-129782380D01*
X197964285Y-129782380D02*
X197916666Y-129830000D01*
X197916666Y-129830000D02*
X197821428Y-129877619D01*
X197821428Y-129877619D02*
X197583333Y-129877619D01*
X197583333Y-129877619D02*
X197488095Y-129830000D01*
X197488095Y-129830000D02*
X197440476Y-129782380D01*
X198297619Y-128877619D02*
X198630952Y-129877619D01*
X198630952Y-129877619D02*
X198964285Y-128877619D01*
X200292857Y-128877619D02*
X200911904Y-128877619D01*
X200911904Y-128877619D02*
X200578571Y-129258571D01*
X200578571Y-129258571D02*
X200721428Y-129258571D01*
X200721428Y-129258571D02*
X200816666Y-129306190D01*
X200816666Y-129306190D02*
X200864285Y-129353809D01*
X200864285Y-129353809D02*
X200911904Y-129449047D01*
X200911904Y-129449047D02*
X200911904Y-129687142D01*
X200911904Y-129687142D02*
X200864285Y-129782380D01*
X200864285Y-129782380D02*
X200816666Y-129830000D01*
X200816666Y-129830000D02*
X200721428Y-129877619D01*
X200721428Y-129877619D02*
X200435714Y-129877619D01*
X200435714Y-129877619D02*
X200340476Y-129830000D01*
X200340476Y-129830000D02*
X200292857Y-129782380D01*
X201340476Y-129782380D02*
X201388095Y-129830000D01*
X201388095Y-129830000D02*
X201340476Y-129877619D01*
X201340476Y-129877619D02*
X201292857Y-129830000D01*
X201292857Y-129830000D02*
X201340476Y-129782380D01*
X201340476Y-129782380D02*
X201340476Y-129877619D01*
X201721428Y-128877619D02*
X202340475Y-128877619D01*
X202340475Y-128877619D02*
X202007142Y-129258571D01*
X202007142Y-129258571D02*
X202149999Y-129258571D01*
X202149999Y-129258571D02*
X202245237Y-129306190D01*
X202245237Y-129306190D02*
X202292856Y-129353809D01*
X202292856Y-129353809D02*
X202340475Y-129449047D01*
X202340475Y-129449047D02*
X202340475Y-129687142D01*
X202340475Y-129687142D02*
X202292856Y-129782380D01*
X202292856Y-129782380D02*
X202245237Y-129830000D01*
X202245237Y-129830000D02*
X202149999Y-129877619D01*
X202149999Y-129877619D02*
X201864285Y-129877619D01*
X201864285Y-129877619D02*
X201769047Y-129830000D01*
X201769047Y-129830000D02*
X201721428Y-129782380D01*
X202626190Y-128877619D02*
X202959523Y-129877619D01*
X202959523Y-129877619D02*
X203292856Y-128877619D01*
X192545238Y-128877619D02*
X192878571Y-129877619D01*
X192878571Y-129877619D02*
X193211904Y-128877619D01*
X193878571Y-129353809D02*
X194021428Y-129401428D01*
X194021428Y-129401428D02*
X194069047Y-129449047D01*
X194069047Y-129449047D02*
X194116666Y-129544285D01*
X194116666Y-129544285D02*
X194116666Y-129687142D01*
X194116666Y-129687142D02*
X194069047Y-129782380D01*
X194069047Y-129782380D02*
X194021428Y-129830000D01*
X194021428Y-129830000D02*
X193926190Y-129877619D01*
X193926190Y-129877619D02*
X193545238Y-129877619D01*
X193545238Y-129877619D02*
X193545238Y-128877619D01*
X193545238Y-128877619D02*
X193878571Y-128877619D01*
X193878571Y-128877619D02*
X193973809Y-128925238D01*
X193973809Y-128925238D02*
X194021428Y-128972857D01*
X194021428Y-128972857D02*
X194069047Y-129068095D01*
X194069047Y-129068095D02*
X194069047Y-129163333D01*
X194069047Y-129163333D02*
X194021428Y-129258571D01*
X194021428Y-129258571D02*
X193973809Y-129306190D01*
X193973809Y-129306190D02*
X193878571Y-129353809D01*
X193878571Y-129353809D02*
X193545238Y-129353809D01*
X194545238Y-128877619D02*
X194545238Y-129687142D01*
X194545238Y-129687142D02*
X194592857Y-129782380D01*
X194592857Y-129782380D02*
X194640476Y-129830000D01*
X194640476Y-129830000D02*
X194735714Y-129877619D01*
X194735714Y-129877619D02*
X194926190Y-129877619D01*
X194926190Y-129877619D02*
X195021428Y-129830000D01*
X195021428Y-129830000D02*
X195069047Y-129782380D01*
X195069047Y-129782380D02*
X195116666Y-129687142D01*
X195116666Y-129687142D02*
X195116666Y-128877619D01*
X195545238Y-129830000D02*
X195688095Y-129877619D01*
X195688095Y-129877619D02*
X195926190Y-129877619D01*
X195926190Y-129877619D02*
X196021428Y-129830000D01*
X196021428Y-129830000D02*
X196069047Y-129782380D01*
X196069047Y-129782380D02*
X196116666Y-129687142D01*
X196116666Y-129687142D02*
X196116666Y-129591904D01*
X196116666Y-129591904D02*
X196069047Y-129496666D01*
X196069047Y-129496666D02*
X196021428Y-129449047D01*
X196021428Y-129449047D02*
X195926190Y-129401428D01*
X195926190Y-129401428D02*
X195735714Y-129353809D01*
X195735714Y-129353809D02*
X195640476Y-129306190D01*
X195640476Y-129306190D02*
X195592857Y-129258571D01*
X195592857Y-129258571D02*
X195545238Y-129163333D01*
X195545238Y-129163333D02*
X195545238Y-129068095D01*
X195545238Y-129068095D02*
X195592857Y-128972857D01*
X195592857Y-128972857D02*
X195640476Y-128925238D01*
X195640476Y-128925238D02*
X195735714Y-128877619D01*
X195735714Y-128877619D02*
X195973809Y-128877619D01*
X195973809Y-128877619D02*
X196116666Y-128925238D01*
D13*
%TO.C,SW43*%
X203209987Y-118950000D02*
X203209987Y-118540000D01*
X203209987Y-118540000D02*
X196789987Y-118540000D01*
X203209987Y-124960000D02*
X203209987Y-124680000D01*
X203209987Y-122950000D02*
X203209987Y-120550000D01*
X196789987Y-120550000D02*
X196789987Y-122950000D01*
X196789987Y-118540000D02*
X196789987Y-118950000D01*
X196789987Y-124960000D02*
X203209987Y-124960000D01*
X196789987Y-124550000D02*
X196789987Y-124960000D01*
%TO.C,C17*%
X193990000Y-121640580D02*
X193990000Y-121359420D01*
X195010000Y-121640580D02*
X195010000Y-121359420D01*
D11*
%TO.C,SW38*%
X281919762Y-78227710D02*
X281711850Y-77249563D01*
X284622614Y-90943629D02*
X284414702Y-89965481D01*
X284622614Y-90943629D02*
X285600761Y-90735717D01*
X282689998Y-77041651D02*
X281711850Y-77249563D01*
X297338532Y-88240777D02*
X298316680Y-88032865D01*
X295405916Y-74338799D02*
X294427769Y-74546711D01*
X295405916Y-74338799D02*
X295613828Y-75316947D01*
X298108768Y-87054718D02*
X298316680Y-88032865D01*
%TO.C,SW1*%
X90683782Y-56813719D02*
X90891694Y-55835571D01*
X87980930Y-69529637D02*
X88188842Y-68551490D01*
X87980930Y-69529637D02*
X88959078Y-69737549D01*
X91869841Y-56043483D02*
X90891694Y-55835571D01*
X100696849Y-72232489D02*
X101674996Y-72440401D01*
X104585760Y-58746335D02*
X103607612Y-58538423D01*
X104585760Y-58746335D02*
X104377848Y-59724482D01*
X101882908Y-71462253D02*
X101674996Y-72440401D01*
%TO.C,SW40*%
X295622155Y-59724482D02*
X295414243Y-58746335D01*
X298325007Y-72440401D02*
X298117095Y-71462253D01*
X298325007Y-72440401D02*
X299303154Y-72232489D01*
X296392391Y-58538423D02*
X295414243Y-58746335D01*
X311040925Y-69737549D02*
X312019073Y-69529637D01*
X309108309Y-55835571D02*
X308130162Y-56043483D01*
X309108309Y-55835571D02*
X309316221Y-56813719D01*
X311811161Y-68551490D02*
X312019073Y-69529637D01*
D13*
%TO.C,Y2*%
X200675000Y-116625000D02*
X199325000Y-116625000D01*
X200675000Y-114875000D02*
X199325000Y-114875000D01*
%TO.C,C10*%
X191560030Y-97861219D02*
X191361219Y-98060030D01*
X190838781Y-97139970D02*
X190639970Y-97338781D01*
D11*
%TO.C,SW9*%
X118192523Y-93331101D02*
X118400435Y-92352953D01*
X115489671Y-106047019D02*
X115697583Y-105068872D01*
X115489671Y-106047019D02*
X116467819Y-106254931D01*
X119378582Y-92560865D02*
X118400435Y-92352953D01*
X128205590Y-108749871D02*
X129183737Y-108957783D01*
X132094501Y-95263717D02*
X131116353Y-95055805D01*
X132094501Y-95263717D02*
X131886589Y-96241864D01*
X129391649Y-107979635D02*
X129183737Y-108957783D01*
%TO.C,SW11*%
X139171825Y-77599162D02*
X139379737Y-76621014D01*
X136468973Y-90315080D02*
X136676885Y-89336933D01*
X136468973Y-90315080D02*
X137447121Y-90522992D01*
X140357884Y-76828926D02*
X139379737Y-76621014D01*
X149184892Y-93017932D02*
X150163039Y-93225844D01*
X153073803Y-79531778D02*
X152095655Y-79323866D01*
X153073803Y-79531778D02*
X152865891Y-80509925D01*
X150370951Y-92247696D02*
X150163039Y-93225844D01*
%TO.C,SW16*%
X151938616Y-100504054D02*
X152146528Y-99525906D01*
X149235764Y-113219972D02*
X149443676Y-112241825D01*
X149235764Y-113219972D02*
X150213912Y-113427884D01*
X153124675Y-99733818D02*
X152146528Y-99525906D01*
X161951683Y-115922824D02*
X162929830Y-116130736D01*
X165840594Y-102436670D02*
X164862446Y-102228758D01*
X165840594Y-102436670D02*
X165632682Y-103414817D01*
X163137742Y-115152588D02*
X162929830Y-116130736D01*
%TO.C,SW34*%
X260940460Y-62495772D02*
X260732548Y-61517625D01*
X263643312Y-75211691D02*
X263435400Y-74233543D01*
X263643312Y-75211691D02*
X264621459Y-75003779D01*
X261710696Y-61309713D02*
X260732548Y-61517625D01*
X276359230Y-72508839D02*
X277337378Y-72300927D01*
X274426614Y-58606861D02*
X273448467Y-58814773D01*
X274426614Y-58606861D02*
X274634526Y-59585009D01*
X277129466Y-71322780D02*
X277337378Y-72300927D01*
D13*
%TO.C,TP3*%
X206800000Y-127250000D02*
G75*
G03*
X206800000Y-127250000I-1200000J0D01*
G01*
D11*
%TO.C,SW15*%
X155525092Y-83631008D02*
X155733004Y-82652860D01*
X152822240Y-96346926D02*
X153030152Y-95368779D01*
X152822240Y-96346926D02*
X153800388Y-96554838D01*
X156711151Y-82860772D02*
X155733004Y-82652860D01*
X165538159Y-99049778D02*
X166516306Y-99257690D01*
X169427070Y-85563624D02*
X168448922Y-85355712D01*
X169427070Y-85563624D02*
X169219158Y-86541771D01*
X166724218Y-98279542D02*
X166516306Y-99257690D01*
D13*
%TO.C,C12*%
X203439970Y-107438781D02*
X203638781Y-107239970D01*
X204161219Y-108160030D02*
X204360030Y-107961219D01*
%TO.C,U2*%
X201560002Y-71000000D02*
X201560002Y-69200000D01*
X201560002Y-71000000D02*
X201560002Y-71800000D01*
X198440002Y-71000000D02*
X198440002Y-70200000D01*
X198440002Y-71000000D02*
X198440002Y-71800000D01*
%TO.C,U1*%
X198440000Y-87750000D02*
X198440000Y-89425000D01*
X198440000Y-87750000D02*
X198440000Y-87100000D01*
X201560000Y-87750000D02*
X201560000Y-88400000D01*
X201560000Y-87750000D02*
X201560000Y-87100000D01*
%TO.C,C6*%
X195015000Y-112011252D02*
X195015000Y-111488748D01*
X196485000Y-112011252D02*
X196485000Y-111488748D01*
%TO.C,R3*%
X196272500Y-70262742D02*
X196272500Y-70737258D01*
X195227500Y-70262742D02*
X195227500Y-70737258D01*
%TO.C,TP2*%
X199300000Y-127250000D02*
G75*
G03*
X199300000Y-127250000I-1200000J0D01*
G01*
D11*
%TO.C,SW20*%
X169227485Y-102134236D02*
X169435397Y-101156088D01*
X166524633Y-114850154D02*
X166732545Y-113872007D01*
X166524633Y-114850154D02*
X167502781Y-115058066D01*
X170413544Y-101364000D02*
X169435397Y-101156088D01*
X179240552Y-117553006D02*
X180218699Y-117760918D01*
X183129463Y-104066852D02*
X182151315Y-103858940D01*
X183129463Y-104066852D02*
X182921551Y-105044999D01*
X180426611Y-116782770D02*
X180218699Y-117760918D01*
%TO.C,SW14*%
X159111569Y-66757962D02*
X159319481Y-65779814D01*
X156408717Y-79473880D02*
X156616629Y-78495733D01*
X156408717Y-79473880D02*
X157386865Y-79681792D01*
X160297628Y-65987726D02*
X159319481Y-65779814D01*
X169124636Y-82176732D02*
X170102783Y-82384644D01*
X173013547Y-68690578D02*
X172035399Y-68482666D01*
X173013547Y-68690578D02*
X172805635Y-69668725D01*
X170310695Y-81406496D02*
X170102783Y-82384644D01*
%TO.C,SW32*%
X250720588Y-97382971D02*
X250512676Y-96404824D01*
X253423440Y-110098890D02*
X253215528Y-109120742D01*
X253423440Y-110098890D02*
X254401587Y-109890978D01*
X251490824Y-96196912D02*
X250512676Y-96404824D01*
X266139358Y-107396038D02*
X267117506Y-107188126D01*
X264206742Y-93494060D02*
X263228595Y-93701972D01*
X264206742Y-93494060D02*
X264414654Y-94472208D01*
X266909594Y-106209979D02*
X267117506Y-107188126D01*
%TO.C,SW3*%
X83510829Y-90559812D02*
X83718741Y-89581664D01*
X80807977Y-103275730D02*
X81015889Y-102297583D01*
X80807977Y-103275730D02*
X81786125Y-103483642D01*
X84696888Y-89789576D02*
X83718741Y-89581664D01*
X93523896Y-105978582D02*
X94502043Y-106186494D01*
X97412807Y-92492428D02*
X96434659Y-92284516D01*
X97412807Y-92492428D02*
X97204895Y-93470575D01*
X94709955Y-105208346D02*
X94502043Y-106186494D01*
%TO.C,SW21*%
X174357157Y-125095218D02*
X174811148Y-124204212D01*
X168455281Y-136678303D02*
X168909271Y-135787297D01*
X168455281Y-136678303D02*
X169346287Y-137132294D01*
X175702154Y-124658202D02*
X174811148Y-124204212D01*
X180038366Y-142580180D02*
X180929372Y-143034170D01*
X187285239Y-130560079D02*
X186394233Y-130106088D01*
X187285239Y-130560079D02*
X186831249Y-131451085D01*
X181383363Y-142143164D02*
X180929372Y-143034170D01*
D13*
%TO.C,C2*%
X201490000Y-81735580D02*
X201490000Y-81454420D01*
X202510000Y-81735580D02*
X202510000Y-81454420D01*
D11*
%TO.C,SW5*%
X104386175Y-75316947D02*
X104594087Y-74338799D01*
X101683323Y-88032865D02*
X101891235Y-87054718D01*
X101683323Y-88032865D02*
X102661471Y-88240777D01*
X105572234Y-74546711D02*
X104594087Y-74338799D01*
X114399242Y-90735717D02*
X115377389Y-90943629D01*
X118288153Y-77249563D02*
X117310005Y-77041651D01*
X118288153Y-77249563D02*
X118080241Y-78227710D01*
X115585301Y-89965481D02*
X115377389Y-90943629D01*
%TO.C,SW36*%
X268113414Y-96241864D02*
X267905502Y-95263717D01*
X270816266Y-108957783D02*
X270608354Y-107979635D01*
X270816266Y-108957783D02*
X271794413Y-108749871D01*
X268883650Y-95055805D02*
X267905502Y-95263717D01*
X283532184Y-106254931D02*
X284510332Y-106047019D01*
X281599568Y-92352953D02*
X280621421Y-92560865D01*
X281599568Y-92352953D02*
X281807480Y-93331101D01*
X284302420Y-105068872D02*
X284510332Y-106047019D01*
%TO.C,SW7*%
X125365477Y-59585009D02*
X125573389Y-58606861D01*
X122662625Y-72300927D02*
X122870537Y-71322780D01*
X122662625Y-72300927D02*
X123640773Y-72508839D01*
X126551536Y-58814773D02*
X125573389Y-58606861D01*
X135378544Y-75003779D02*
X136356691Y-75211691D01*
X139267455Y-61517625D02*
X138289307Y-61309713D01*
X139267455Y-61517625D02*
X139059543Y-62495772D01*
X136564603Y-74233543D02*
X136356691Y-75211691D01*
D13*
%TO.C,TP4*%
X203050000Y-127250000D02*
G75*
G03*
X203050000Y-127250000I-1200000J0D01*
G01*
D11*
%TO.C,SW4*%
X107972651Y-58443901D02*
X108180563Y-57465753D01*
X105269799Y-71159819D02*
X105477711Y-70181672D01*
X105269799Y-71159819D02*
X106247947Y-71367731D01*
X109158710Y-57673665D02*
X108180563Y-57465753D01*
X117985718Y-73862671D02*
X118963865Y-74070583D01*
X121874629Y-60376517D02*
X120896481Y-60168605D01*
X121874629Y-60376517D02*
X121666717Y-61354664D01*
X119171777Y-73092435D02*
X118963865Y-74070583D01*
D13*
%TO.C,U3*%
X192773369Y-100000000D02*
X193445120Y-100671751D01*
X193445120Y-100671751D02*
X192497597Y-101619275D01*
X200000000Y-107226631D02*
X199328249Y-106554880D01*
X193445120Y-99328249D02*
X192773369Y-100000000D01*
X200671751Y-106554880D02*
X200000000Y-107226631D01*
X199328249Y-93445120D02*
X200000000Y-92773369D01*
X206554880Y-100671751D02*
X207226631Y-100000000D01*
X200000000Y-92773369D02*
X200671751Y-93445120D01*
X207226631Y-100000000D02*
X206554880Y-99328249D01*
%TO.C,C8*%
X204985000Y-111488748D02*
X204985000Y-112011252D01*
X203515000Y-111488748D02*
X203515000Y-112011252D01*
D11*
%TO.C,SW19*%
X172813962Y-85261189D02*
X173021874Y-84283041D01*
X170111110Y-97977107D02*
X170319022Y-96998960D01*
X170111110Y-97977107D02*
X171089258Y-98185019D01*
X174000021Y-84490953D02*
X173021874Y-84283041D01*
X182827029Y-100679959D02*
X183805176Y-100887871D01*
X186715940Y-87193805D02*
X185737792Y-86985893D01*
X186715940Y-87193805D02*
X186508028Y-88171952D01*
X184013088Y-99909723D02*
X183805176Y-100887871D01*
D13*
%TO.C,C16*%
X202490000Y-88640580D02*
X202490000Y-88359420D01*
X203510000Y-88640580D02*
X203510000Y-88359420D01*
D11*
%TO.C,SW27*%
X230780845Y-86541771D02*
X230572933Y-85563624D01*
X233483697Y-99257690D02*
X233275785Y-98279542D01*
X233483697Y-99257690D02*
X234461844Y-99049778D01*
X231551081Y-85355712D02*
X230572933Y-85563624D01*
X246199615Y-96554838D02*
X247177763Y-96346926D01*
X244266999Y-82652860D02*
X243288852Y-82860772D01*
X244266999Y-82652860D02*
X244474911Y-83631008D01*
X246969851Y-95368779D02*
X247177763Y-96346926D01*
D13*
%TO.C,R4*%
X194272500Y-70262742D02*
X194272500Y-70737258D01*
X193227500Y-70262742D02*
X193227500Y-70737258D01*
%TO.C,R2*%
X206772500Y-70262742D02*
X206772500Y-70737258D01*
X205727500Y-70262742D02*
X205727500Y-70737258D01*
%TO.C,C11*%
X190838781Y-102860030D02*
X190639970Y-102661219D01*
X191560030Y-102138781D02*
X191361219Y-101939970D01*
D11*
%TO.C,SW17*%
X148352139Y-117377100D02*
X148560051Y-116398952D01*
X145649287Y-130093018D02*
X145857199Y-129114871D01*
X145649287Y-130093018D02*
X146627435Y-130300930D01*
X149538198Y-116606864D02*
X148560051Y-116398952D01*
X158365206Y-132795870D02*
X159343353Y-133003782D01*
X162254117Y-119309716D02*
X161275969Y-119101804D01*
X162254117Y-119309716D02*
X162046205Y-120287863D01*
X159551265Y-132025634D02*
X159343353Y-133003782D01*
D13*
%TO.C,R1*%
X204772500Y-70262742D02*
X204772500Y-70737258D01*
X203727500Y-70262742D02*
X203727500Y-70737258D01*
%TO.C,TP1*%
X195550000Y-127250000D02*
G75*
G03*
X195550000Y-127250000I-1200000J0D01*
G01*
D11*
%TO.C,SW22*%
X209905498Y-71298906D02*
X209697586Y-70320759D01*
X212608350Y-84014825D02*
X212400438Y-83036677D01*
X212608350Y-84014825D02*
X213586497Y-83806913D01*
X210675734Y-70112847D02*
X209697586Y-70320759D01*
X225324268Y-81311973D02*
X226302416Y-81104061D01*
X223391652Y-67409995D02*
X222413505Y-67617907D01*
X223391652Y-67409995D02*
X223599564Y-68388143D01*
X226094504Y-80125914D02*
X226302416Y-81104061D01*
%TO.C,SW23*%
X213491975Y-88171952D02*
X213284063Y-87193805D01*
X216194827Y-100887871D02*
X215986915Y-99909723D01*
X216194827Y-100887871D02*
X217172974Y-100679959D01*
X214262211Y-86985893D02*
X213284063Y-87193805D01*
X228910745Y-98185019D02*
X229888893Y-97977107D01*
X226978129Y-84283041D02*
X225999982Y-84490953D01*
X226978129Y-84283041D02*
X227186041Y-85261189D01*
X229680981Y-96998960D02*
X229888893Y-97977107D01*
D13*
%TO.C,C1*%
X198510000Y-81454420D02*
X198510000Y-81735580D01*
X197490000Y-81454420D02*
X197490000Y-81735580D01*
%TO.C,C13*%
X200140580Y-91260000D02*
X199859420Y-91260000D01*
X200140580Y-90240000D02*
X199859420Y-90240000D01*
D11*
%TO.C,SW2*%
X87097305Y-73686766D02*
X87305217Y-72708618D01*
X84394453Y-86402684D02*
X84602365Y-85424537D01*
X84394453Y-86402684D02*
X85372601Y-86610596D01*
X88283364Y-72916530D02*
X87305217Y-72708618D01*
X97110372Y-89105536D02*
X98088519Y-89313448D01*
X100999283Y-75619382D02*
X100021135Y-75411470D01*
X100999283Y-75619382D02*
X100791371Y-76597529D01*
X98296431Y-88335300D02*
X98088519Y-89313448D01*
%TO.C,SW25*%
X213168754Y-131451085D02*
X212714764Y-130560079D01*
X219070631Y-143034170D02*
X218616640Y-142143164D01*
X219070631Y-143034170D02*
X219961637Y-142580180D01*
X213605770Y-130106088D02*
X212714764Y-130560079D01*
X230653716Y-137132294D02*
X231544722Y-136678303D01*
X225188855Y-124204212D02*
X224297849Y-124658202D01*
X225188855Y-124204212D02*
X225642846Y-125095218D01*
X231090732Y-135787297D02*
X231544722Y-136678303D01*
D13*
%TO.C,C7*%
X197235000Y-115488748D02*
X197235000Y-116011252D01*
X195765000Y-115488748D02*
X195765000Y-116011252D01*
D11*
%TO.C,SW33*%
X254307065Y-114256018D02*
X254099153Y-113277871D01*
X257009917Y-126971937D02*
X256802005Y-125993789D01*
X257009917Y-126971937D02*
X257988064Y-126764025D01*
X255077301Y-113069959D02*
X254099153Y-113277871D01*
X269725835Y-124269085D02*
X270703983Y-124061173D01*
X267793219Y-110367107D02*
X266815072Y-110575019D01*
X267793219Y-110367107D02*
X268001131Y-111345255D01*
X270496071Y-123083026D02*
X270703983Y-124061173D01*
D13*
%TO.C,C5*%
X197510000Y-88359420D02*
X197510000Y-88640580D01*
X196490000Y-88359420D02*
X196490000Y-88640580D01*
%TO.C,C3*%
X200261252Y-85235000D02*
X199738748Y-85235000D01*
X200261252Y-83765000D02*
X199738748Y-83765000D01*
%TO.C,C9*%
X204235000Y-115488748D02*
X204235000Y-116011252D01*
X202765000Y-115488748D02*
X202765000Y-116011252D01*
D11*
%TO.C,SW18*%
X176400438Y-68388143D02*
X176608350Y-67409995D01*
X173697586Y-81104061D02*
X173905498Y-80125914D01*
X173697586Y-81104061D02*
X174675734Y-81311973D01*
X177586497Y-67617907D02*
X176608350Y-67409995D01*
X186413505Y-83806913D02*
X187391652Y-84014825D01*
X190302416Y-70320759D02*
X189324268Y-70112847D01*
X190302416Y-70320759D02*
X190094504Y-71298906D01*
X187599564Y-83036677D02*
X187391652Y-84014825D01*
%TO.C,SW10*%
X142758302Y-60726116D02*
X142966214Y-59747968D01*
X140055450Y-73442034D02*
X140263362Y-72463887D01*
X140055450Y-73442034D02*
X141033598Y-73649946D01*
X143944361Y-59955880D02*
X142966214Y-59747968D01*
X152771369Y-76144886D02*
X153749516Y-76352798D01*
X156660280Y-62658732D02*
X155682132Y-62450820D01*
X156660280Y-62658732D02*
X156452368Y-63636879D01*
X153957428Y-75374650D02*
X153749516Y-76352798D01*
%TO.C,SW8*%
X121779000Y-76458055D02*
X121986912Y-75479907D01*
X119076148Y-89173973D02*
X119284060Y-88195826D01*
X119076148Y-89173973D02*
X120054296Y-89381885D01*
X122965059Y-75687819D02*
X121986912Y-75479907D01*
X131792067Y-91876825D02*
X132770214Y-92084737D01*
X135680978Y-78390671D02*
X134702830Y-78182759D01*
X135680978Y-78390671D02*
X135473066Y-79368818D01*
X132978126Y-91106589D02*
X132770214Y-92084737D01*
%TO.C,SW42*%
X302795108Y-93470575D02*
X302587196Y-92492428D01*
X305497960Y-106186494D02*
X305290048Y-105208346D01*
X305497960Y-106186494D02*
X306476107Y-105978582D01*
X303565344Y-92284516D02*
X302587196Y-92492428D01*
X318213878Y-103483642D02*
X319192026Y-103275730D01*
X316281262Y-89581664D02*
X315303115Y-89789576D01*
X316281262Y-89581664D02*
X316489174Y-90559812D01*
X318984114Y-102297583D02*
X319192026Y-103275730D01*
D14*
%TO.C,J1*%
X204400000Y-67000000D02*
X204400000Y-59900000D01*
X204400000Y-67000000D02*
X195600000Y-67000000D01*
D15*
X200000000Y-66520000D02*
X200000000Y-60200000D01*
D14*
X195800000Y-61000000D02*
X204200000Y-61000000D01*
X195600000Y-67000000D02*
X195600000Y-59900000D01*
X195600000Y-59900000D02*
X204400000Y-59900000D01*
D11*
%TO.C,SW12*%
X135585349Y-94472208D02*
X135793261Y-93494060D01*
X132882497Y-107188126D02*
X133090409Y-106209979D01*
X132882497Y-107188126D02*
X133860645Y-107396038D01*
X136771408Y-93701972D02*
X135793261Y-93494060D01*
X145598416Y-109890978D02*
X146576563Y-110098890D01*
X149487327Y-96404824D02*
X148509179Y-96196912D01*
X149487327Y-96404824D02*
X149279415Y-97382971D01*
X146784475Y-109120742D02*
X146576563Y-110098890D01*
%TO.C,SW39*%
X285506239Y-95100756D02*
X285298327Y-94122609D01*
X288209091Y-107816675D02*
X288001179Y-106838527D01*
X288209091Y-107816675D02*
X289187238Y-107608763D01*
X286276475Y-93914697D02*
X285298327Y-94122609D01*
X300925009Y-105113823D02*
X301903157Y-104905911D01*
X298992393Y-91211845D02*
X298014246Y-91419757D01*
X298992393Y-91211845D02*
X299200305Y-92189993D01*
X301695245Y-103927764D02*
X301903157Y-104905911D01*
D13*
%TO.C,FB1*%
X200510000Y-81087221D02*
X200510000Y-81412779D01*
X199490000Y-81087221D02*
X199490000Y-81412779D01*
%TO.C,Y1*%
X197350000Y-109900000D02*
X197350000Y-113600000D01*
X197350000Y-113600000D02*
X202650000Y-113600000D01*
D11*
%TO.C,SW24*%
X217078452Y-105044999D02*
X216870540Y-104066852D01*
X219781304Y-117760918D02*
X219573392Y-116782770D01*
X219781304Y-117760918D02*
X220759451Y-117553006D01*
X217848688Y-103858940D02*
X216870540Y-104066852D01*
X232497222Y-115058066D02*
X233475370Y-114850154D01*
X230564606Y-101156088D02*
X229586459Y-101364000D01*
X230564606Y-101156088D02*
X230772518Y-102134236D01*
X233267458Y-113872007D02*
X233475370Y-114850154D01*
%TO.C,SW35*%
X264526937Y-79368818D02*
X264319025Y-78390671D01*
X267229789Y-92084737D02*
X267021877Y-91106589D01*
X267229789Y-92084737D02*
X268207936Y-91876825D01*
X265297173Y-78182759D02*
X264319025Y-78390671D01*
X279945707Y-89381885D02*
X280923855Y-89173973D01*
X278013091Y-75479907D02*
X277034944Y-75687819D01*
X278013091Y-75479907D02*
X278221003Y-76458055D01*
X280715943Y-88195826D02*
X280923855Y-89173973D01*
%TO.C,SW28*%
X234367321Y-103414817D02*
X234159409Y-102436670D01*
X237070173Y-116130736D02*
X236862261Y-115152588D01*
X237070173Y-116130736D02*
X238048320Y-115922824D01*
X235137557Y-102228758D02*
X234159409Y-102436670D01*
X249786091Y-113427884D02*
X250764239Y-113219972D01*
X247853475Y-99525906D02*
X246875328Y-99733818D01*
X247853475Y-99525906D02*
X248061387Y-100504054D01*
X250556327Y-112241825D02*
X250764239Y-113219972D01*
D13*
%TO.C,C4*%
X196490000Y-85140580D02*
X196490000Y-84859420D01*
X197510000Y-85140580D02*
X197510000Y-84859420D01*
D11*
%TO.C,SW37*%
X278333286Y-61354664D02*
X278125374Y-60376517D01*
X281036138Y-74070583D02*
X280828226Y-73092435D01*
X281036138Y-74070583D02*
X282014285Y-73862671D01*
X279103522Y-60168605D02*
X278125374Y-60376517D01*
X293752056Y-71367731D02*
X294730204Y-71159819D01*
X291819440Y-57465753D02*
X290841293Y-57673665D01*
X291819440Y-57465753D02*
X292027352Y-58443901D01*
X294522292Y-70181672D02*
X294730204Y-71159819D01*
%TO.C,SW13*%
X131998872Y-111345255D02*
X132206784Y-110367107D01*
X129296020Y-124061173D02*
X129503932Y-123083026D01*
X129296020Y-124061173D02*
X130274168Y-124269085D01*
X133184931Y-110575019D02*
X132206784Y-110367107D01*
X142011939Y-126764025D02*
X142990086Y-126971937D01*
X145900850Y-113277871D02*
X144922702Y-113069959D01*
X145900850Y-113277871D02*
X145692938Y-114256018D01*
X143197998Y-125993789D02*
X142990086Y-126971937D01*
%TO.C,SW26*%
X227194368Y-69668725D02*
X226986456Y-68690578D01*
X229897220Y-82384644D02*
X229689308Y-81406496D01*
X229897220Y-82384644D02*
X230875367Y-82176732D01*
X227964604Y-68482666D02*
X226986456Y-68690578D01*
X242613138Y-79681792D02*
X243591286Y-79473880D01*
X240680522Y-65779814D02*
X239702375Y-65987726D01*
X240680522Y-65779814D02*
X240888434Y-66757962D01*
X243383374Y-78495733D02*
X243591286Y-79473880D01*
D13*
%TO.C,C14*%
X208039970Y-102738781D02*
X208238781Y-102539970D01*
X208761219Y-103460030D02*
X208960030Y-103261219D01*
D11*
%TO.C,SW6*%
X100799698Y-92189993D02*
X101007610Y-91211845D01*
X98096846Y-104905911D02*
X98304758Y-103927764D01*
X98096846Y-104905911D02*
X99074994Y-105113823D01*
X101985757Y-91419757D02*
X101007610Y-91211845D01*
X110812765Y-107608763D02*
X111790912Y-107816675D01*
X114701676Y-94122609D02*
X113723528Y-93914697D01*
X114701676Y-94122609D02*
X114493764Y-95100756D01*
X111998824Y-106838527D02*
X111790912Y-107816675D01*
%TO.C,SW30*%
X243547635Y-63636879D02*
X243339723Y-62658732D01*
X246250487Y-76352798D02*
X246042575Y-75374650D01*
X246250487Y-76352798D02*
X247228634Y-76144886D01*
X244317871Y-62450820D02*
X243339723Y-62658732D01*
X258966405Y-73649946D02*
X259944553Y-73442034D01*
X257033789Y-59747968D02*
X256055642Y-59955880D01*
X257033789Y-59747968D02*
X257241701Y-60726116D01*
X259736641Y-72463887D02*
X259944553Y-73442034D01*
%TO.C,SW31*%
X247134112Y-80509925D02*
X246926200Y-79531778D01*
X249836964Y-93225844D02*
X249629052Y-92247696D01*
X249836964Y-93225844D02*
X250815111Y-93017932D01*
X247904348Y-79323866D02*
X246926200Y-79531778D01*
X262552882Y-90522992D02*
X263531030Y-90315080D01*
X260620266Y-76621014D02*
X259642119Y-76828926D01*
X260620266Y-76621014D02*
X260828178Y-77599162D01*
X263323118Y-89336933D02*
X263531030Y-90315080D01*
%TO.C,SW41*%
X299208632Y-76597529D02*
X299000720Y-75619382D01*
X301911484Y-89313448D02*
X301703572Y-88335300D01*
X301911484Y-89313448D02*
X302889631Y-89105536D01*
X299978868Y-75411470D02*
X299000720Y-75619382D01*
X314627402Y-86610596D02*
X315605550Y-86402684D01*
X312694786Y-72708618D02*
X311716639Y-72916530D01*
X312694786Y-72708618D02*
X312902698Y-73686766D01*
X315397638Y-85424537D02*
X315605550Y-86402684D01*
%TO.C,SW29*%
X237953798Y-120287863D02*
X237745886Y-119309716D01*
X240656650Y-133003782D02*
X240448738Y-132025634D01*
X240656650Y-133003782D02*
X241634797Y-132795870D01*
X238724034Y-119101804D02*
X237745886Y-119309716D01*
X253372568Y-130300930D02*
X254350716Y-130093018D01*
X251439952Y-116398952D02*
X250461805Y-116606864D01*
X251439952Y-116398952D02*
X251647864Y-117377100D01*
X254142804Y-129114871D02*
X254350716Y-130093018D01*
%TD*%
M02*
