M48
; DRILL file {KiCad 7.0.2} date Sun Jun 25 00:33:07 2023
; FORMAT={-:-/ absolute / metric / decimal}
; #@! TF.CreationDate,2023-06-25T00:33:07+10:00
; #@! TF.GenerationSoftware,Kicad,Pcbnew,7.0.2
; #@! TF.FileFunction,Plated,1,2,PTH
FMAT,2
METRIC
; #@! TA.AperFunction,Plated,PTH,ViaDrill
T1C0.400
; #@! TA.AperFunction,Plated,PTH,ComponentDrill
T2C0.600
; #@! TA.AperFunction,Plated,PTH,ComponentDrill
T3C1.000
; #@! TA.AperFunction,Plated,PTH,ComponentDrill
T4C1.270
%
G90
G05
T1
X92.0Y-68.0
X93.0Y-74.0
X98.25Y-66.5
X99.5Y-73.25
X188.0Y-104.25
X190.0Y-94.5
X190.0Y-104.25
X190.25Y-74.5
X190.25Y-75.5
X190.25Y-76.5
X190.25Y-95.75
X190.75Y-73.5
X191.75Y-73.25
X192.5Y-95.75
X192.75Y-73.0
X192.75Y-96.75
X192.75Y-115.75
X192.75Y-118.279
X192.774Y-93.975
X193.549Y-113.71
X194.05Y-93.85
X194.25Y-115.75
X194.25Y-118.5
X194.642Y-92.691
X194.75Y-91.5
X195.5Y-86.5
X195.526Y-88.575
X195.55Y-107.9
X196.0Y-100.849
X196.105Y-91.523
X196.5Y-102.5
X196.7Y-106.75
X197.0Y-73.0
X197.2Y-90.8
X197.75Y-101.0
X198.0Y-70.0
X198.45Y-95.85
X198.83Y-104.913
X199.5Y-92.25
X200.0Y-65.75
X200.0Y-95.0
X200.0Y-103.7
X201.2Y-104.9
X201.7Y-95.85
X202.35Y-91.55
X203.0Y-73.0
X203.664Y-92.664
X204.336Y-93.336
X207.818Y-104.832
X209.5Y-118.279
T3
X196.23Y-138.75
X198.77Y-138.75
X201.31Y-138.75
X203.85Y-138.75
T4
X83.43Y-100.561
X87.016Y-83.688
X87.884Y-103.655
X90.603Y-66.815
X91.47Y-86.782
X95.057Y-69.909
X100.718Y-102.192
X104.305Y-85.319
X105.173Y-105.285
X107.891Y-68.446
X108.759Y-88.412
X112.346Y-71.539
X118.111Y-103.333
X121.698Y-86.46
X122.565Y-106.426
X125.284Y-69.587
X126.152Y-89.553
X129.738Y-72.68
X131.918Y-121.347
X135.504Y-104.474
X136.372Y-124.441
X139.091Y-87.601
X139.958Y-107.568
X142.677Y-70.728
X143.545Y-90.694
X147.131Y-73.821
X148.271Y-127.379
X151.857Y-110.506
X152.725Y-130.472
X155.444Y-93.633
X156.311Y-113.599
X159.03Y-76.76
X159.898Y-96.726
X163.484Y-79.853
X169.146Y-112.136
X171.69Y-134.735
X172.733Y-95.263
X173.6Y-115.23
X175.192Y-138.876
X176.319Y-78.39
X177.187Y-98.357
X180.773Y-81.483
X213.899Y-80.469
X217.486Y-97.342
X219.227Y-81.483
X219.4Y-139.275
X221.072Y-114.215
X222.813Y-98.357
X224.808Y-138.876
X226.4Y-115.23
X231.188Y-78.839
X234.775Y-95.712
X236.516Y-79.853
X238.361Y-112.585
X240.102Y-96.726
X241.948Y-129.458
X243.689Y-113.599
X247.275Y-130.472
X247.541Y-72.807
X251.128Y-89.68
X252.869Y-73.821
X254.714Y-106.553
X256.455Y-90.694
X258.301Y-123.426
X260.042Y-107.568
X263.628Y-124.441
X264.934Y-71.666
X268.521Y-88.539
X270.262Y-72.68
X272.107Y-105.412
X273.848Y-89.553
X277.435Y-106.426
X282.327Y-70.525
X285.914Y-87.398
X287.654Y-71.539
X289.5Y-104.271
X291.241Y-88.412
X294.827Y-105.285
X299.616Y-68.895
X303.202Y-85.768
X304.943Y-69.909
X306.789Y-102.641
X308.53Y-86.782
X312.116Y-103.655
T2
G00X195.68Y-62.8
M15
G01X195.68Y-62.2
M16
G05
G00X195.68Y-67.23
M15
G01X195.68Y-66.13
M16
G05
G00X204.32Y-62.8
M15
G01X204.32Y-62.2
M16
G05
G00X204.32Y-67.23
M15
G01X204.32Y-66.13
M16
G05
T0
M30
