%TF.GenerationSoftware,KiCad,Pcbnew,7.0.2*%
%TF.CreationDate,2023-06-25T00:33:16+10:00*%
%TF.ProjectId,keyboard,6b657962-6f61-4726-942e-6b696361645f,v1.0.0*%
%TF.SameCoordinates,Original*%
%TF.FileFunction,Legend,Bot*%
%TF.FilePolarity,Positive*%
%FSLAX46Y46*%
G04 Gerber Fmt 4.6, Leading zero omitted, Abs format (unit mm)*
G04 Created by KiCad (PCBNEW 7.0.2) date 2023-06-25 00:33:16*
%MOMM*%
%LPD*%
G01*
G04 APERTURE LIST*
%ADD10C,0.200000*%
%ADD11C,0.375000*%
%ADD12C,0.800000*%
%ADD13C,0.120000*%
G04 APERTURE END LIST*
D10*
X197290462Y-127877619D02*
X197290462Y-126877619D01*
X197290462Y-126877619D02*
X197052367Y-126877619D01*
X197052367Y-126877619D02*
X196909510Y-126925238D01*
X196909510Y-126925238D02*
X196814272Y-127020476D01*
X196814272Y-127020476D02*
X196766653Y-127115714D01*
X196766653Y-127115714D02*
X196719034Y-127306190D01*
X196719034Y-127306190D02*
X196719034Y-127449047D01*
X196719034Y-127449047D02*
X196766653Y-127639523D01*
X196766653Y-127639523D02*
X196814272Y-127734761D01*
X196814272Y-127734761D02*
X196909510Y-127830000D01*
X196909510Y-127830000D02*
X197052367Y-127877619D01*
X197052367Y-127877619D02*
X197290462Y-127877619D01*
X195909510Y-127830000D02*
X196004748Y-127877619D01*
X196004748Y-127877619D02*
X196195224Y-127877619D01*
X196195224Y-127877619D02*
X196290462Y-127830000D01*
X196290462Y-127830000D02*
X196338081Y-127734761D01*
X196338081Y-127734761D02*
X196338081Y-127353809D01*
X196338081Y-127353809D02*
X196290462Y-127258571D01*
X196290462Y-127258571D02*
X196195224Y-127210952D01*
X196195224Y-127210952D02*
X196004748Y-127210952D01*
X196004748Y-127210952D02*
X195909510Y-127258571D01*
X195909510Y-127258571D02*
X195861891Y-127353809D01*
X195861891Y-127353809D02*
X195861891Y-127449047D01*
X195861891Y-127449047D02*
X196338081Y-127544285D01*
X195480938Y-127830000D02*
X195385700Y-127877619D01*
X195385700Y-127877619D02*
X195195224Y-127877619D01*
X195195224Y-127877619D02*
X195099986Y-127830000D01*
X195099986Y-127830000D02*
X195052367Y-127734761D01*
X195052367Y-127734761D02*
X195052367Y-127687142D01*
X195052367Y-127687142D02*
X195099986Y-127591904D01*
X195099986Y-127591904D02*
X195195224Y-127544285D01*
X195195224Y-127544285D02*
X195338081Y-127544285D01*
X195338081Y-127544285D02*
X195433319Y-127496666D01*
X195433319Y-127496666D02*
X195480938Y-127401428D01*
X195480938Y-127401428D02*
X195480938Y-127353809D01*
X195480938Y-127353809D02*
X195433319Y-127258571D01*
X195433319Y-127258571D02*
X195338081Y-127210952D01*
X195338081Y-127210952D02*
X195195224Y-127210952D01*
X195195224Y-127210952D02*
X195099986Y-127258571D01*
X194623795Y-127877619D02*
X194623795Y-127210952D01*
X194623795Y-126877619D02*
X194671414Y-126925238D01*
X194671414Y-126925238D02*
X194623795Y-126972857D01*
X194623795Y-126972857D02*
X194576176Y-126925238D01*
X194576176Y-126925238D02*
X194623795Y-126877619D01*
X194623795Y-126877619D02*
X194623795Y-126972857D01*
X193719034Y-127210952D02*
X193719034Y-128020476D01*
X193719034Y-128020476D02*
X193766653Y-128115714D01*
X193766653Y-128115714D02*
X193814272Y-128163333D01*
X193814272Y-128163333D02*
X193909510Y-128210952D01*
X193909510Y-128210952D02*
X194052367Y-128210952D01*
X194052367Y-128210952D02*
X194147605Y-128163333D01*
X193719034Y-127830000D02*
X193814272Y-127877619D01*
X193814272Y-127877619D02*
X194004748Y-127877619D01*
X194004748Y-127877619D02*
X194099986Y-127830000D01*
X194099986Y-127830000D02*
X194147605Y-127782380D01*
X194147605Y-127782380D02*
X194195224Y-127687142D01*
X194195224Y-127687142D02*
X194195224Y-127401428D01*
X194195224Y-127401428D02*
X194147605Y-127306190D01*
X194147605Y-127306190D02*
X194099986Y-127258571D01*
X194099986Y-127258571D02*
X194004748Y-127210952D01*
X194004748Y-127210952D02*
X193814272Y-127210952D01*
X193814272Y-127210952D02*
X193719034Y-127258571D01*
X193242843Y-127210952D02*
X193242843Y-127877619D01*
X193242843Y-127306190D02*
X193195224Y-127258571D01*
X193195224Y-127258571D02*
X193099986Y-127210952D01*
X193099986Y-127210952D02*
X192957129Y-127210952D01*
X192957129Y-127210952D02*
X192861891Y-127258571D01*
X192861891Y-127258571D02*
X192814272Y-127353809D01*
X192814272Y-127353809D02*
X192814272Y-127877619D01*
X191957129Y-127830000D02*
X192052367Y-127877619D01*
X192052367Y-127877619D02*
X192242843Y-127877619D01*
X192242843Y-127877619D02*
X192338081Y-127830000D01*
X192338081Y-127830000D02*
X192385700Y-127734761D01*
X192385700Y-127734761D02*
X192385700Y-127353809D01*
X192385700Y-127353809D02*
X192338081Y-127258571D01*
X192338081Y-127258571D02*
X192242843Y-127210952D01*
X192242843Y-127210952D02*
X192052367Y-127210952D01*
X192052367Y-127210952D02*
X191957129Y-127258571D01*
X191957129Y-127258571D02*
X191909510Y-127353809D01*
X191909510Y-127353809D02*
X191909510Y-127449047D01*
X191909510Y-127449047D02*
X192385700Y-127544285D01*
X191052367Y-127877619D02*
X191052367Y-126877619D01*
X191052367Y-127830000D02*
X191147605Y-127877619D01*
X191147605Y-127877619D02*
X191338081Y-127877619D01*
X191338081Y-127877619D02*
X191433319Y-127830000D01*
X191433319Y-127830000D02*
X191480938Y-127782380D01*
X191480938Y-127782380D02*
X191528557Y-127687142D01*
X191528557Y-127687142D02*
X191528557Y-127401428D01*
X191528557Y-127401428D02*
X191480938Y-127306190D01*
X191480938Y-127306190D02*
X191433319Y-127258571D01*
X191433319Y-127258571D02*
X191338081Y-127210952D01*
X191338081Y-127210952D02*
X191147605Y-127210952D01*
X191147605Y-127210952D02*
X191052367Y-127258571D01*
X189814271Y-127877619D02*
X189814271Y-126877619D01*
X189814271Y-127258571D02*
X189719033Y-127210952D01*
X189719033Y-127210952D02*
X189528557Y-127210952D01*
X189528557Y-127210952D02*
X189433319Y-127258571D01*
X189433319Y-127258571D02*
X189385700Y-127306190D01*
X189385700Y-127306190D02*
X189338081Y-127401428D01*
X189338081Y-127401428D02*
X189338081Y-127687142D01*
X189338081Y-127687142D02*
X189385700Y-127782380D01*
X189385700Y-127782380D02*
X189433319Y-127830000D01*
X189433319Y-127830000D02*
X189528557Y-127877619D01*
X189528557Y-127877619D02*
X189719033Y-127877619D01*
X189719033Y-127877619D02*
X189814271Y-127830000D01*
X189004747Y-127210952D02*
X188766652Y-127877619D01*
X188528557Y-127210952D02*
X188766652Y-127877619D01*
X188766652Y-127877619D02*
X188861890Y-128115714D01*
X188861890Y-128115714D02*
X188909509Y-128163333D01*
X188909509Y-128163333D02*
X189004747Y-128210952D01*
X187099985Y-126877619D02*
X187099985Y-127591904D01*
X187099985Y-127591904D02*
X187147604Y-127734761D01*
X187147604Y-127734761D02*
X187242842Y-127830000D01*
X187242842Y-127830000D02*
X187385699Y-127877619D01*
X187385699Y-127877619D02*
X187480937Y-127877619D01*
X186195223Y-127877619D02*
X186195223Y-127353809D01*
X186195223Y-127353809D02*
X186242842Y-127258571D01*
X186242842Y-127258571D02*
X186338080Y-127210952D01*
X186338080Y-127210952D02*
X186528556Y-127210952D01*
X186528556Y-127210952D02*
X186623794Y-127258571D01*
X186195223Y-127830000D02*
X186290461Y-127877619D01*
X186290461Y-127877619D02*
X186528556Y-127877619D01*
X186528556Y-127877619D02*
X186623794Y-127830000D01*
X186623794Y-127830000D02*
X186671413Y-127734761D01*
X186671413Y-127734761D02*
X186671413Y-127639523D01*
X186671413Y-127639523D02*
X186623794Y-127544285D01*
X186623794Y-127544285D02*
X186528556Y-127496666D01*
X186528556Y-127496666D02*
X186290461Y-127496666D01*
X186290461Y-127496666D02*
X186195223Y-127449047D01*
X185290461Y-127830000D02*
X185385699Y-127877619D01*
X185385699Y-127877619D02*
X185576175Y-127877619D01*
X185576175Y-127877619D02*
X185671413Y-127830000D01*
X185671413Y-127830000D02*
X185719032Y-127782380D01*
X185719032Y-127782380D02*
X185766651Y-127687142D01*
X185766651Y-127687142D02*
X185766651Y-127401428D01*
X185766651Y-127401428D02*
X185719032Y-127306190D01*
X185719032Y-127306190D02*
X185671413Y-127258571D01*
X185671413Y-127258571D02*
X185576175Y-127210952D01*
X185576175Y-127210952D02*
X185385699Y-127210952D01*
X185385699Y-127210952D02*
X185290461Y-127258571D01*
X184861889Y-127877619D02*
X184861889Y-126877619D01*
X184766651Y-127496666D02*
X184480937Y-127877619D01*
X184480937Y-127210952D02*
X184861889Y-127591904D01*
X182957127Y-127353809D02*
X182814270Y-127401428D01*
X182814270Y-127401428D02*
X182766651Y-127449047D01*
X182766651Y-127449047D02*
X182719032Y-127544285D01*
X182719032Y-127544285D02*
X182719032Y-127687142D01*
X182719032Y-127687142D02*
X182766651Y-127782380D01*
X182766651Y-127782380D02*
X182814270Y-127830000D01*
X182814270Y-127830000D02*
X182909508Y-127877619D01*
X182909508Y-127877619D02*
X183290460Y-127877619D01*
X183290460Y-127877619D02*
X183290460Y-126877619D01*
X183290460Y-126877619D02*
X182957127Y-126877619D01*
X182957127Y-126877619D02*
X182861889Y-126925238D01*
X182861889Y-126925238D02*
X182814270Y-126972857D01*
X182814270Y-126972857D02*
X182766651Y-127068095D01*
X182766651Y-127068095D02*
X182766651Y-127163333D01*
X182766651Y-127163333D02*
X182814270Y-127258571D01*
X182814270Y-127258571D02*
X182861889Y-127306190D01*
X182861889Y-127306190D02*
X182957127Y-127353809D01*
X182957127Y-127353809D02*
X183290460Y-127353809D01*
X182290460Y-127877619D02*
X182290460Y-127210952D01*
X182290460Y-127401428D02*
X182242841Y-127306190D01*
X182242841Y-127306190D02*
X182195222Y-127258571D01*
X182195222Y-127258571D02*
X182099984Y-127210952D01*
X182099984Y-127210952D02*
X182004746Y-127210952D01*
X181242841Y-127877619D02*
X181242841Y-127353809D01*
X181242841Y-127353809D02*
X181290460Y-127258571D01*
X181290460Y-127258571D02*
X181385698Y-127210952D01*
X181385698Y-127210952D02*
X181576174Y-127210952D01*
X181576174Y-127210952D02*
X181671412Y-127258571D01*
X181242841Y-127830000D02*
X181338079Y-127877619D01*
X181338079Y-127877619D02*
X181576174Y-127877619D01*
X181576174Y-127877619D02*
X181671412Y-127830000D01*
X181671412Y-127830000D02*
X181719031Y-127734761D01*
X181719031Y-127734761D02*
X181719031Y-127639523D01*
X181719031Y-127639523D02*
X181671412Y-127544285D01*
X181671412Y-127544285D02*
X181576174Y-127496666D01*
X181576174Y-127496666D02*
X181338079Y-127496666D01*
X181338079Y-127496666D02*
X181242841Y-127449047D01*
X180338079Y-127877619D02*
X180338079Y-126877619D01*
X180338079Y-127830000D02*
X180433317Y-127877619D01*
X180433317Y-127877619D02*
X180623793Y-127877619D01*
X180623793Y-127877619D02*
X180719031Y-127830000D01*
X180719031Y-127830000D02*
X180766650Y-127782380D01*
X180766650Y-127782380D02*
X180814269Y-127687142D01*
X180814269Y-127687142D02*
X180814269Y-127401428D01*
X180814269Y-127401428D02*
X180766650Y-127306190D01*
X180766650Y-127306190D02*
X180719031Y-127258571D01*
X180719031Y-127258571D02*
X180623793Y-127210952D01*
X180623793Y-127210952D02*
X180433317Y-127210952D01*
X180433317Y-127210952D02*
X180338079Y-127258571D01*
X179719031Y-127877619D02*
X179814269Y-127830000D01*
X179814269Y-127830000D02*
X179861888Y-127734761D01*
X179861888Y-127734761D02*
X179861888Y-126877619D01*
X178957126Y-127830000D02*
X179052364Y-127877619D01*
X179052364Y-127877619D02*
X179242840Y-127877619D01*
X179242840Y-127877619D02*
X179338078Y-127830000D01*
X179338078Y-127830000D02*
X179385697Y-127734761D01*
X179385697Y-127734761D02*
X179385697Y-127353809D01*
X179385697Y-127353809D02*
X179338078Y-127258571D01*
X179338078Y-127258571D02*
X179242840Y-127210952D01*
X179242840Y-127210952D02*
X179052364Y-127210952D01*
X179052364Y-127210952D02*
X178957126Y-127258571D01*
X178957126Y-127258571D02*
X178909507Y-127353809D01*
X178909507Y-127353809D02*
X178909507Y-127449047D01*
X178909507Y-127449047D02*
X179385697Y-127544285D01*
X178576173Y-127210952D02*
X178338078Y-127877619D01*
X178099983Y-127210952D02*
X178338078Y-127877619D01*
X178338078Y-127877619D02*
X178433316Y-128115714D01*
X178433316Y-128115714D02*
X178480935Y-128163333D01*
X178480935Y-128163333D02*
X178576173Y-128210952D01*
D11*
X221314272Y-127266428D02*
X220957129Y-128266428D01*
X220957129Y-128266428D02*
X220599986Y-127266428D01*
X219242843Y-128266428D02*
X220099986Y-128266428D01*
X219671415Y-128266428D02*
X219671415Y-126766428D01*
X219671415Y-126766428D02*
X219814272Y-126980714D01*
X219814272Y-126980714D02*
X219957129Y-127123571D01*
X219957129Y-127123571D02*
X220099986Y-127195000D01*
X218599987Y-128123571D02*
X218528558Y-128195000D01*
X218528558Y-128195000D02*
X218599987Y-128266428D01*
X218599987Y-128266428D02*
X218671415Y-128195000D01*
X218671415Y-128195000D02*
X218599987Y-128123571D01*
X218599987Y-128123571D02*
X218599987Y-128266428D01*
X217599986Y-126766428D02*
X217457129Y-126766428D01*
X217457129Y-126766428D02*
X217314272Y-126837857D01*
X217314272Y-126837857D02*
X217242844Y-126909285D01*
X217242844Y-126909285D02*
X217171415Y-127052142D01*
X217171415Y-127052142D02*
X217099986Y-127337857D01*
X217099986Y-127337857D02*
X217099986Y-127695000D01*
X217099986Y-127695000D02*
X217171415Y-127980714D01*
X217171415Y-127980714D02*
X217242844Y-128123571D01*
X217242844Y-128123571D02*
X217314272Y-128195000D01*
X217314272Y-128195000D02*
X217457129Y-128266428D01*
X217457129Y-128266428D02*
X217599986Y-128266428D01*
X217599986Y-128266428D02*
X217742844Y-128195000D01*
X217742844Y-128195000D02*
X217814272Y-128123571D01*
X217814272Y-128123571D02*
X217885701Y-127980714D01*
X217885701Y-127980714D02*
X217957129Y-127695000D01*
X217957129Y-127695000D02*
X217957129Y-127337857D01*
X217957129Y-127337857D02*
X217885701Y-127052142D01*
X217885701Y-127052142D02*
X217814272Y-126909285D01*
X217814272Y-126909285D02*
X217742844Y-126837857D01*
X217742844Y-126837857D02*
X217599986Y-126766428D01*
D12*
X221671415Y-121510476D02*
X219385700Y-121510476D01*
X221028558Y-125510476D02*
X220528558Y-121510476D01*
X218576176Y-125510476D02*
X218076176Y-121510476D01*
X216861890Y-125510476D02*
X216599986Y-123415238D01*
X216599986Y-123415238D02*
X216742843Y-123034285D01*
X216742843Y-123034285D02*
X217099986Y-122843809D01*
X217099986Y-122843809D02*
X217671414Y-122843809D01*
X217671414Y-122843809D02*
X218076176Y-123034285D01*
X218076176Y-123034285D02*
X218290462Y-123224761D01*
X214980938Y-125510476D02*
X214647605Y-122843809D01*
X214480938Y-121510476D02*
X214695224Y-121700952D01*
X214695224Y-121700952D02*
X214528557Y-121891428D01*
X214528557Y-121891428D02*
X214314271Y-121700952D01*
X214314271Y-121700952D02*
X214480938Y-121510476D01*
X214480938Y-121510476D02*
X214528557Y-121891428D01*
X212766653Y-122843809D02*
X213099986Y-125510476D01*
X212814272Y-123224761D02*
X212599986Y-123034285D01*
X212599986Y-123034285D02*
X212195224Y-122843809D01*
X212195224Y-122843809D02*
X211623796Y-122843809D01*
X211623796Y-122843809D02*
X211266653Y-123034285D01*
X211266653Y-123034285D02*
X211123796Y-123415238D01*
X211123796Y-123415238D02*
X211385700Y-125510476D01*
X207457129Y-122843809D02*
X207861891Y-126081904D01*
X207861891Y-126081904D02*
X208099986Y-126462857D01*
X208099986Y-126462857D02*
X208314272Y-126653333D01*
X208314272Y-126653333D02*
X208719034Y-126843809D01*
X208719034Y-126843809D02*
X209290462Y-126843809D01*
X209290462Y-126843809D02*
X209647605Y-126653333D01*
X207766653Y-125320000D02*
X208171415Y-125510476D01*
X208171415Y-125510476D02*
X208933320Y-125510476D01*
X208933320Y-125510476D02*
X209290462Y-125320000D01*
X209290462Y-125320000D02*
X209457129Y-125129523D01*
X209457129Y-125129523D02*
X209599986Y-124748571D01*
X209599986Y-124748571D02*
X209457129Y-123605714D01*
X209457129Y-123605714D02*
X209219034Y-123224761D01*
X209219034Y-123224761D02*
X209004748Y-123034285D01*
X209004748Y-123034285D02*
X208599986Y-122843809D01*
X208599986Y-122843809D02*
X207838081Y-122843809D01*
X207838081Y-122843809D02*
X207480939Y-123034285D01*
X204361891Y-125510476D02*
X204099987Y-123415238D01*
X204099987Y-123415238D02*
X204242844Y-123034285D01*
X204242844Y-123034285D02*
X204599987Y-122843809D01*
X204599987Y-122843809D02*
X205361891Y-122843809D01*
X205361891Y-122843809D02*
X205766653Y-123034285D01*
X204338082Y-125320000D02*
X204742844Y-125510476D01*
X204742844Y-125510476D02*
X205695225Y-125510476D01*
X205695225Y-125510476D02*
X206052368Y-125320000D01*
X206052368Y-125320000D02*
X206195225Y-124939047D01*
X206195225Y-124939047D02*
X206147606Y-124558095D01*
X206147606Y-124558095D02*
X205909510Y-124177142D01*
X205909510Y-124177142D02*
X205504749Y-123986666D01*
X205504749Y-123986666D02*
X204552368Y-123986666D01*
X204552368Y-123986666D02*
X204147606Y-123796190D01*
X202480939Y-125510476D02*
X202147606Y-122843809D01*
X202195225Y-123224761D02*
X201980939Y-123034285D01*
X201980939Y-123034285D02*
X201576177Y-122843809D01*
X201576177Y-122843809D02*
X201004749Y-122843809D01*
X201004749Y-122843809D02*
X200647606Y-123034285D01*
X200647606Y-123034285D02*
X200504749Y-123415238D01*
X200504749Y-123415238D02*
X200766653Y-125510476D01*
X200504749Y-123415238D02*
X200266653Y-123034285D01*
X200266653Y-123034285D02*
X199861891Y-122843809D01*
X199861891Y-122843809D02*
X199290463Y-122843809D01*
X199290463Y-122843809D02*
X198933320Y-123034285D01*
X198933320Y-123034285D02*
X198790463Y-123415238D01*
X198790463Y-123415238D02*
X199052368Y-125510476D01*
X195457129Y-125510476D02*
X195195225Y-123415238D01*
X195195225Y-123415238D02*
X195338082Y-123034285D01*
X195338082Y-123034285D02*
X195695225Y-122843809D01*
X195695225Y-122843809D02*
X196457129Y-122843809D01*
X196457129Y-122843809D02*
X196861891Y-123034285D01*
X195433320Y-125320000D02*
X195838082Y-125510476D01*
X195838082Y-125510476D02*
X196790463Y-125510476D01*
X196790463Y-125510476D02*
X197147606Y-125320000D01*
X197147606Y-125320000D02*
X197290463Y-124939047D01*
X197290463Y-124939047D02*
X197242844Y-124558095D01*
X197242844Y-124558095D02*
X197004748Y-124177142D01*
X197004748Y-124177142D02*
X196599987Y-123986666D01*
X196599987Y-123986666D02*
X195647606Y-123986666D01*
X195647606Y-123986666D02*
X195242844Y-123796190D01*
X193576177Y-125510476D02*
X193076177Y-121510476D01*
X193266653Y-123034285D02*
X192861891Y-122843809D01*
X192861891Y-122843809D02*
X192099987Y-122843809D01*
X192099987Y-122843809D02*
X191742844Y-123034285D01*
X191742844Y-123034285D02*
X191576177Y-123224761D01*
X191576177Y-123224761D02*
X191433320Y-123605714D01*
X191433320Y-123605714D02*
X191576177Y-124748571D01*
X191576177Y-124748571D02*
X191814272Y-125129523D01*
X191814272Y-125129523D02*
X192028558Y-125320000D01*
X192028558Y-125320000D02*
X192433320Y-125510476D01*
X192433320Y-125510476D02*
X193195225Y-125510476D01*
X193195225Y-125510476D02*
X193552368Y-125320000D01*
X189409511Y-125510476D02*
X189766653Y-125320000D01*
X189766653Y-125320000D02*
X189933320Y-125129523D01*
X189933320Y-125129523D02*
X190076177Y-124748571D01*
X190076177Y-124748571D02*
X189933320Y-123605714D01*
X189933320Y-123605714D02*
X189695225Y-123224761D01*
X189695225Y-123224761D02*
X189480939Y-123034285D01*
X189480939Y-123034285D02*
X189076177Y-122843809D01*
X189076177Y-122843809D02*
X188504749Y-122843809D01*
X188504749Y-122843809D02*
X188147606Y-123034285D01*
X188147606Y-123034285D02*
X187980939Y-123224761D01*
X187980939Y-123224761D02*
X187838082Y-123605714D01*
X187838082Y-123605714D02*
X187980939Y-124748571D01*
X187980939Y-124748571D02*
X188219034Y-125129523D01*
X188219034Y-125129523D02*
X188433320Y-125320000D01*
X188433320Y-125320000D02*
X188838082Y-125510476D01*
X188838082Y-125510476D02*
X189409511Y-125510476D01*
X184671415Y-125510476D02*
X184409511Y-123415238D01*
X184409511Y-123415238D02*
X184552368Y-123034285D01*
X184552368Y-123034285D02*
X184909511Y-122843809D01*
X184909511Y-122843809D02*
X185671415Y-122843809D01*
X185671415Y-122843809D02*
X186076177Y-123034285D01*
X184647606Y-125320000D02*
X185052368Y-125510476D01*
X185052368Y-125510476D02*
X186004749Y-125510476D01*
X186004749Y-125510476D02*
X186361892Y-125320000D01*
X186361892Y-125320000D02*
X186504749Y-124939047D01*
X186504749Y-124939047D02*
X186457130Y-124558095D01*
X186457130Y-124558095D02*
X186219034Y-124177142D01*
X186219034Y-124177142D02*
X185814273Y-123986666D01*
X185814273Y-123986666D02*
X184861892Y-123986666D01*
X184861892Y-123986666D02*
X184457130Y-123796190D01*
X182790463Y-125510476D02*
X182457130Y-122843809D01*
X182552368Y-123605714D02*
X182314273Y-123224761D01*
X182314273Y-123224761D02*
X182099987Y-123034285D01*
X182099987Y-123034285D02*
X181695225Y-122843809D01*
X181695225Y-122843809D02*
X181314273Y-122843809D01*
X178623796Y-125510476D02*
X178123796Y-121510476D01*
X178599987Y-125320000D02*
X179004749Y-125510476D01*
X179004749Y-125510476D02*
X179766654Y-125510476D01*
X179766654Y-125510476D02*
X180123796Y-125320000D01*
X180123796Y-125320000D02*
X180290463Y-125129523D01*
X180290463Y-125129523D02*
X180433320Y-124748571D01*
X180433320Y-124748571D02*
X180290463Y-123605714D01*
X180290463Y-123605714D02*
X180052368Y-123224761D01*
X180052368Y-123224761D02*
X179838082Y-123034285D01*
X179838082Y-123034285D02*
X179433320Y-122843809D01*
X179433320Y-122843809D02*
X178671415Y-122843809D01*
X178671415Y-122843809D02*
X178314273Y-123034285D01*
D13*
%TO.C,R8*%
X99060411Y-72876561D02*
X98961753Y-73340707D01*
X98038247Y-72659293D02*
X97939589Y-73123439D01*
%TO.C,R7*%
X95373439Y-73060411D02*
X94909293Y-72961753D01*
X95590707Y-72038247D02*
X95126561Y-71939589D01*
%TO.C,R5*%
X94873439Y-75310411D02*
X94409293Y-75211753D01*
X95090707Y-74288247D02*
X94626561Y-74189589D01*
%TO.C,J2*%
X203288562Y-148840000D02*
X203288562Y-140210000D01*
X203760942Y-148840000D02*
X203760942Y-140210000D01*
X202698087Y-148840000D02*
X202698087Y-140210000D01*
X204115227Y-148840000D02*
X204115227Y-140210000D01*
X204705702Y-148840000D02*
X204705702Y-140210000D01*
X203170467Y-148840000D02*
X203170467Y-140210000D01*
X202579987Y-148840000D02*
X202579987Y-140210000D01*
X200949987Y-140210000D02*
X200949987Y-139800000D01*
X195869987Y-140210000D02*
X195869987Y-139800000D01*
X204941892Y-148840000D02*
X204941892Y-140210000D01*
X204351417Y-148840000D02*
X204351417Y-140210000D01*
X204209987Y-140210000D02*
X204209987Y-139860000D01*
X205179987Y-140210000D02*
X194899987Y-140210000D01*
X205179987Y-148840000D02*
X194899987Y-148840000D01*
X205059987Y-148840000D02*
X205059987Y-140210000D01*
X204469512Y-148840000D02*
X204469512Y-140210000D01*
X200039987Y-148840000D02*
X200039987Y-140210000D01*
X196589987Y-140210000D02*
X196589987Y-139800000D01*
X205179987Y-148840000D02*
X205179987Y-140210000D01*
X203879037Y-148840000D02*
X203879037Y-140210000D01*
X202816182Y-148840000D02*
X202816182Y-140210000D01*
X205179987Y-138750000D02*
X205179987Y-137640000D01*
X204587607Y-148840000D02*
X204587607Y-140210000D01*
X203524752Y-148840000D02*
X203524752Y-140210000D01*
X201669987Y-140210000D02*
X201669987Y-139800000D01*
X198409987Y-140210000D02*
X198409987Y-139800000D01*
X204233322Y-148840000D02*
X204233322Y-140210000D01*
X203052372Y-148840000D02*
X203052372Y-140210000D01*
X204823797Y-148840000D02*
X204823797Y-140210000D01*
X197499987Y-148840000D02*
X197499987Y-140210000D01*
X199129987Y-140210000D02*
X199129987Y-139800000D01*
X202934277Y-148840000D02*
X202934277Y-140210000D01*
X203642847Y-148840000D02*
X203642847Y-140210000D01*
X203997132Y-148840000D02*
X203997132Y-140210000D01*
X203489987Y-140210000D02*
X203489987Y-139860000D01*
X203406657Y-148840000D02*
X203406657Y-140210000D01*
X205179987Y-137640000D02*
X203849987Y-137640000D01*
X194899987Y-148840000D02*
X194899987Y-140210000D01*
%TO.C,D9*%
X127464267Y-109112885D02*
X128297993Y-105190513D01*
X129420562Y-109528708D02*
X127464267Y-109112885D01*
X129420562Y-109528708D02*
X130254288Y-105606336D01*
%TO.C,D42*%
X317684135Y-104117419D02*
X316850409Y-100195047D01*
X319640430Y-103701596D02*
X317684135Y-104117419D01*
X319640430Y-103701596D02*
X318806704Y-99779224D01*
%TO.C,D40*%
X310511182Y-70371326D02*
X309677456Y-66448954D01*
X312467477Y-69955503D02*
X310511182Y-70371326D01*
X312467477Y-69955503D02*
X311633751Y-66033131D01*
%TO.C,D10*%
X152030046Y-76507900D02*
X152863772Y-72585528D01*
X153986341Y-76923723D02*
X152030046Y-76507900D01*
X153986341Y-76923723D02*
X154820067Y-73001351D01*
%TO.C,JP2*%
X93557033Y-70834521D02*
X93681780Y-70247632D01*
X93142615Y-69417391D02*
X91773208Y-69126314D01*
X91357385Y-71082609D02*
X92726792Y-71373686D01*
X90942967Y-69665479D02*
X90818220Y-70252368D01*
X92726792Y-71373685D02*
G75*
G03*
X93557033Y-70834521I145539J684701D01*
G01*
X93681779Y-70247632D02*
G75*
G03*
X93142615Y-69417391I-684701J145539D01*
G01*
X90818221Y-70252368D02*
G75*
G03*
X91357385Y-71082608I684702J-145538D01*
G01*
X91773208Y-69126316D02*
G75*
G03*
X90942968Y-69665479I-145538J-684702D01*
G01*
%TO.C,D29*%
X252842825Y-130934707D02*
X252009099Y-127012335D01*
X254799120Y-130518884D02*
X252842825Y-130934707D01*
X254799120Y-130518884D02*
X253965394Y-126596512D01*
%TO.C,D34*%
X275829487Y-73142616D02*
X274995761Y-69220244D01*
X277785782Y-72726793D02*
X275829487Y-73142616D01*
X277785782Y-72726793D02*
X276952056Y-68804421D01*
%TO.C,D25*%
X230305154Y-137881957D02*
X228484652Y-134309021D01*
X232087167Y-136973976D02*
X230305154Y-137881957D01*
X232087167Y-136973976D02*
X230266665Y-133401040D01*
%TO.C,D37*%
X293222313Y-72001508D02*
X292388587Y-68079136D01*
X295178608Y-71585685D02*
X293222313Y-72001508D01*
X295178608Y-71585685D02*
X294344882Y-67663313D01*
%TO.C,D23*%
X228381002Y-98818796D02*
X227547276Y-94896424D01*
X230337297Y-98402973D02*
X228381002Y-98818796D01*
X230337297Y-98402973D02*
X229503571Y-94480601D01*
%TO.C,D4*%
X117244395Y-74225685D02*
X118078121Y-70303313D01*
X119200690Y-74641508D02*
X117244395Y-74225685D01*
X119200690Y-74641508D02*
X120034416Y-70719136D01*
%TO.C,D3*%
X92782573Y-106341596D02*
X93616299Y-102419224D01*
X94738868Y-106757419D02*
X92782573Y-106341596D01*
X94738868Y-106757419D02*
X95572594Y-102835047D01*
%TO.C,D32*%
X265609615Y-108029815D02*
X264775889Y-104107443D01*
X267565910Y-107613992D02*
X265609615Y-108029815D01*
X267565910Y-107613992D02*
X266732184Y-103691620D01*
%TO.C,D13*%
X141270616Y-127127039D02*
X142104342Y-123204667D01*
X143226911Y-127542862D02*
X141270616Y-127127039D01*
X143226911Y-127542862D02*
X144060637Y-123620490D01*
%TO.C,D39*%
X300395266Y-105747600D02*
X299561540Y-101825228D01*
X302351561Y-105331777D02*
X300395266Y-105747600D01*
X302351561Y-105331777D02*
X301517835Y-101409405D01*
%TO.C,D38*%
X296808789Y-88874554D02*
X295975063Y-84952182D01*
X298765084Y-88458731D02*
X296808789Y-88874554D01*
X298765084Y-88458731D02*
X297931358Y-84536359D01*
%TO.C,D7*%
X134637221Y-75366793D02*
X135470947Y-71444421D01*
X136593516Y-75782616D02*
X134637221Y-75366793D01*
X136593516Y-75782616D02*
X137427242Y-71860244D01*
%TO.C,D2*%
X96369049Y-89468550D02*
X97202775Y-85546178D01*
X98325344Y-89884373D02*
X96369049Y-89468550D01*
X98325344Y-89884373D02*
X99159070Y-85962001D01*
%TO.C,D19*%
X182085706Y-101042973D02*
X182919432Y-97120601D01*
X184042001Y-101458796D02*
X182085706Y-101042973D01*
X184042001Y-101458796D02*
X184875727Y-97536424D01*
%TO.C,D28*%
X249256348Y-114061661D02*
X248422622Y-110139289D01*
X251212643Y-113645838D02*
X249256348Y-114061661D01*
X251212643Y-113645838D02*
X250378917Y-109723466D01*
%TO.C,D1*%
X99955526Y-72595503D02*
X100789252Y-68673131D01*
X101911821Y-73011326D02*
X99955526Y-72595503D01*
X101911821Y-73011326D02*
X102745547Y-69088954D01*
%TO.C,JP1*%
X89807033Y-70084521D02*
X89931780Y-69497632D01*
X89392615Y-68667391D02*
X88023208Y-68376314D01*
X87607385Y-70332609D02*
X88976792Y-70623686D01*
X87192967Y-68915479D02*
X87068220Y-69502368D01*
X88976792Y-70623685D02*
G75*
G03*
X89807033Y-70084521I145539J684701D01*
G01*
X89931779Y-69497632D02*
G75*
G03*
X89392615Y-68667391I-684701J145539D01*
G01*
X87068221Y-69502368D02*
G75*
G03*
X87607385Y-70332608I684702J-145538D01*
G01*
X88023208Y-68376316D02*
G75*
G03*
X87192968Y-68915479I-145538J-684702D01*
G01*
%TO.C,D8*%
X131050744Y-92239839D02*
X131884470Y-88317467D01*
X133007039Y-92655662D02*
X131050744Y-92239839D01*
X133007039Y-92655662D02*
X133840765Y-88733290D01*
%TO.C,D24*%
X231967479Y-115691843D02*
X231133753Y-111769471D01*
X233923774Y-115276020D02*
X231967479Y-115691843D01*
X233923774Y-115276020D02*
X233090048Y-111353648D01*
%TO.C,D27*%
X245669872Y-97188615D02*
X244836146Y-93266243D01*
X247626167Y-96772792D02*
X245669872Y-97188615D01*
X247626167Y-96772792D02*
X246792441Y-92850420D01*
%TO.C,D5*%
X113657919Y-91098731D02*
X114491645Y-87176359D01*
X115614214Y-91514554D02*
X113657919Y-91098731D01*
X115614214Y-91514554D02*
X116447940Y-87592182D01*
%TO.C,D15*%
X164796836Y-99412792D02*
X165630562Y-95490420D01*
X166753131Y-99828615D02*
X164796836Y-99412792D01*
X166753131Y-99828615D02*
X167586857Y-95906243D01*
%TO.C,C15*%
X199559420Y-101490000D02*
X199840580Y-101490000D01*
X199559420Y-102510000D02*
X199840580Y-102510000D01*
%TO.C,D31*%
X262023139Y-91156769D02*
X261189413Y-87234397D01*
X263979434Y-90740946D02*
X262023139Y-91156769D01*
X263979434Y-90740946D02*
X263145708Y-86818574D01*
%TO.C,Q2*%
X98824342Y-67724090D02*
X98188546Y-67588947D01*
X98824342Y-67724090D02*
X99460138Y-67859232D01*
X98175658Y-70775910D02*
X96537261Y-70427658D01*
X98175658Y-70775910D02*
X98811454Y-70911053D01*
%TO.C,L1*%
X200399622Y-104310000D02*
X199600378Y-104310000D01*
X200399622Y-103190000D02*
X199600378Y-103190000D01*
%TO.C,D26*%
X242083395Y-80315569D02*
X241249669Y-76393197D01*
X244039690Y-79899746D02*
X242083395Y-80315569D01*
X244039690Y-79899746D02*
X243205964Y-75977374D01*
%TO.C,D30*%
X258436662Y-74283723D02*
X257602936Y-70361351D01*
X260392957Y-73867900D02*
X258436662Y-74283723D01*
X260392957Y-73867900D02*
X259559231Y-69945528D01*
%TO.C,D18*%
X185672182Y-84169927D02*
X186505908Y-80247555D01*
X187628477Y-84585750D02*
X185672182Y-84169927D01*
X187628477Y-84585750D02*
X188462203Y-80663378D01*
%TO.C,D33*%
X269196092Y-124902862D02*
X268362366Y-120980490D01*
X271152387Y-124487039D02*
X269196092Y-124902862D01*
X271152387Y-124487039D02*
X270318661Y-120564667D01*
%TO.C,D14*%
X168383313Y-82539746D02*
X169217039Y-78617374D01*
X170339608Y-82955569D02*
X168383313Y-82539746D01*
X170339608Y-82955569D02*
X171173334Y-79033197D01*
%TO.C,D11*%
X148443569Y-93380946D02*
X149277295Y-89458574D01*
X150399864Y-93796769D02*
X148443569Y-93380946D01*
X150399864Y-93796769D02*
X151233590Y-89874397D01*
%TO.C,D22*%
X224794525Y-81945750D02*
X223960799Y-78023378D01*
X226750820Y-81529927D02*
X224794525Y-81945750D01*
X226750820Y-81529927D02*
X225917094Y-77607555D01*
%TO.C,D21*%
X179227836Y-142738976D02*
X181048338Y-139166040D01*
X181009849Y-143646957D02*
X179227836Y-142738976D01*
X181009849Y-143646957D02*
X182830351Y-140074021D01*
%TO.C,D36*%
X283002441Y-106888708D02*
X282168715Y-102966336D01*
X284958736Y-106472885D02*
X283002441Y-106888708D01*
X284958736Y-106472885D02*
X284125010Y-102550513D01*
%TO.C,D35*%
X279415964Y-90015662D02*
X278582238Y-86093290D01*
X281372259Y-89599839D02*
X279415964Y-90015662D01*
X281372259Y-89599839D02*
X280538533Y-85677467D01*
%TO.C,D17*%
X157623883Y-133158884D02*
X158457609Y-129236512D01*
X159580178Y-133574707D02*
X157623883Y-133158884D01*
X159580178Y-133574707D02*
X160413904Y-129652335D01*
%TO.C,D16*%
X161210360Y-116285838D02*
X162044086Y-112363466D01*
X163166655Y-116701661D02*
X161210360Y-116285838D01*
X163166655Y-116701661D02*
X164000381Y-112779289D01*
%TO.C,D20*%
X178499229Y-117916020D02*
X179332955Y-113993648D01*
X180455524Y-118331843D02*
X178499229Y-117916020D01*
X180455524Y-118331843D02*
X181289250Y-114409471D01*
%TO.C,D12*%
X144857093Y-110253992D02*
X145690819Y-106331620D01*
X146813388Y-110669815D02*
X144857093Y-110253992D01*
X146813388Y-110669815D02*
X147647114Y-106747443D01*
%TO.C,D6*%
X110071442Y-107971777D02*
X110905168Y-104049405D01*
X112027737Y-108387600D02*
X110071442Y-107971777D01*
X112027737Y-108387600D02*
X112861463Y-104465228D01*
%TO.C,D41*%
X314097659Y-87244373D02*
X313263933Y-83322001D01*
X316053954Y-86828550D02*
X314097659Y-87244373D01*
X316053954Y-86828550D02*
X315220228Y-82906178D01*
%TD*%
M02*
