%TF.GenerationSoftware,KiCad,Pcbnew,7.0.2*%
%TF.CreationDate,2023-06-25T00:33:16+10:00*%
%TF.ProjectId,keyboard,6b657962-6f61-4726-942e-6b696361645f,v1.0.0*%
%TF.SameCoordinates,Original*%
%TF.FileFunction,Soldermask,Top*%
%TF.FilePolarity,Negative*%
%FSLAX46Y46*%
G04 Gerber Fmt 4.6, Leading zero omitted, Abs format (unit mm)*
G04 Created by KiCad (PCBNEW 7.0.2) date 2023-06-25 00:33:16*
%MOMM*%
%LPD*%
G01*
G04 APERTURE LIST*
G04 Aperture macros list*
%AMRoundRect*
0 Rectangle with rounded corners*
0 $1 Rounding radius*
0 $2 $3 $4 $5 $6 $7 $8 $9 X,Y pos of 4 corners*
0 Add a 4 corners polygon primitive as box body*
4,1,4,$2,$3,$4,$5,$6,$7,$8,$9,$2,$3,0*
0 Add four circle primitives for the rounded corners*
1,1,$1+$1,$2,$3*
1,1,$1+$1,$4,$5*
1,1,$1+$1,$6,$7*
1,1,$1+$1,$8,$9*
0 Add four rect primitives between the rounded corners*
20,1,$1+$1,$2,$3,$4,$5,0*
20,1,$1+$1,$4,$5,$6,$7,0*
20,1,$1+$1,$6,$7,$8,$9,0*
20,1,$1+$1,$8,$9,$2,$3,0*%
G04 Aperture macros list end*
%ADD10R,2.800000X1.000000*%
%ADD11RoundRect,0.225000X0.250000X-0.225000X0.250000X0.225000X-0.250000X0.225000X-0.250000X-0.225000X0*%
%ADD12R,1.700000X1.700000*%
%ADD13O,1.700000X1.700000*%
%ADD14C,1.701800*%
%ADD15C,3.429000*%
%ADD16C,0.990600*%
%ADD17C,2.032000*%
%ADD18R,1.000000X1.800000*%
%ADD19RoundRect,0.225000X-0.017678X0.335876X-0.335876X0.017678X0.017678X-0.335876X0.335876X-0.017678X0*%
%ADD20C,2.000000*%
%ADD21RoundRect,0.225000X0.017678X-0.335876X0.335876X-0.017678X-0.017678X0.335876X-0.335876X0.017678X0*%
%ADD22RoundRect,0.150000X-0.150000X0.512500X-0.150000X-0.512500X0.150000X-0.512500X0.150000X0.512500X0*%
%ADD23RoundRect,0.150000X0.150000X-0.587500X0.150000X0.587500X-0.150000X0.587500X-0.150000X-0.587500X0*%
%ADD24RoundRect,0.250000X0.475000X-0.250000X0.475000X0.250000X-0.475000X0.250000X-0.475000X-0.250000X0*%
%ADD25RoundRect,0.200000X-0.275000X0.200000X-0.275000X-0.200000X0.275000X-0.200000X0.275000X0.200000X0*%
%ADD26RoundRect,0.075000X-0.441942X-0.548008X0.548008X0.441942X0.441942X0.548008X-0.548008X-0.441942X0*%
%ADD27RoundRect,0.075000X0.441942X-0.548008X0.548008X-0.441942X-0.441942X0.548008X-0.548008X0.441942X0*%
%ADD28RoundRect,0.250000X-0.475000X0.250000X-0.475000X-0.250000X0.475000X-0.250000X0.475000X0.250000X0*%
%ADD29RoundRect,0.225000X0.335876X0.017678X0.017678X0.335876X-0.335876X-0.017678X-0.017678X-0.335876X0*%
%ADD30RoundRect,0.225000X-0.250000X0.225000X-0.250000X-0.225000X0.250000X-0.225000X0.250000X0.225000X0*%
%ADD31RoundRect,0.225000X0.225000X0.250000X-0.225000X0.250000X-0.225000X-0.250000X0.225000X-0.250000X0*%
%ADD32C,3.200000*%
%ADD33RoundRect,0.250000X0.250000X0.475000X-0.250000X0.475000X-0.250000X-0.475000X0.250000X-0.475000X0*%
%ADD34C,0.650000*%
%ADD35R,0.250000X1.450000*%
%ADD36R,0.300000X1.450000*%
%ADD37RoundRect,0.500000X0.000000X0.600000X0.000000X0.600000X0.000000X-0.600000X0.000000X-0.600000X0*%
%ADD38RoundRect,0.500000X0.000000X0.300000X0.000000X0.300000X0.000000X-0.300000X0.000000X-0.300000X0*%
%ADD39RoundRect,0.218750X-0.256250X0.218750X-0.256250X-0.218750X0.256250X-0.218750X0.256250X0.218750X0*%
%ADD40R,1.600000X1.300000*%
G04 APERTURE END LIST*
D10*
%TO.C,SW43*%
X202899987Y-123750000D03*
X197099987Y-123750000D03*
X202899987Y-119750000D03*
X197099987Y-119750000D03*
%TD*%
D11*
%TO.C,C17*%
X194500000Y-120725000D03*
X194500000Y-122275000D03*
%TD*%
D12*
%TO.C,J2*%
X203849987Y-138750000D03*
D13*
X201309987Y-138750000D03*
X198769987Y-138750000D03*
X196229987Y-138750000D03*
%TD*%
D14*
%TO.C,SW38*%
X284634453Y-83784728D03*
D15*
X290014265Y-82641214D03*
D16*
X294246966Y-77447695D03*
D14*
X295394077Y-81497700D03*
D17*
X291240944Y-88412285D03*
X285913591Y-87397733D03*
%TD*%
D14*
%TO.C,SW1*%
X90903533Y-62994472D03*
D15*
X96283345Y-64137986D03*
D16*
X102262505Y-61115065D03*
D14*
X101663157Y-65281500D03*
D17*
X95056666Y-69909057D03*
X90602543Y-66815388D03*
%TD*%
D14*
%TO.C,SW40*%
X298336846Y-65281500D03*
D15*
X303716658Y-64137986D03*
D16*
X307949359Y-58944467D03*
D14*
X309096470Y-62994472D03*
D17*
X304943337Y-69909057D03*
X299615984Y-68894505D03*
%TD*%
D18*
%TO.C,Y2*%
X198750000Y-115750000D03*
X201250000Y-115750000D03*
%TD*%
D19*
%TO.C,C10*%
X191648008Y-97051992D03*
X190551992Y-98148008D03*
%TD*%
D14*
%TO.C,SW9*%
X118412274Y-99511854D03*
D15*
X123792086Y-100655368D03*
D16*
X129771246Y-97632447D03*
D14*
X129171898Y-101798882D03*
D17*
X122565407Y-106426439D03*
X118111284Y-103332770D03*
%TD*%
D14*
%TO.C,SW11*%
X139391576Y-83779915D03*
D15*
X144771388Y-84923429D03*
D16*
X150750548Y-81900508D03*
D14*
X150151200Y-86066943D03*
D17*
X143544709Y-90694500D03*
X139090586Y-87600831D03*
%TD*%
D14*
%TO.C,SW16*%
X152158367Y-106684807D03*
D15*
X157538179Y-107828321D03*
D16*
X163517339Y-104805400D03*
D14*
X162917991Y-108971835D03*
D17*
X156311500Y-113599392D03*
X151857377Y-110505723D03*
%TD*%
D14*
%TO.C,SW34*%
X263655151Y-68052790D03*
D15*
X269034963Y-66909276D03*
D16*
X273267664Y-61715757D03*
D14*
X274414775Y-65765762D03*
D17*
X270261642Y-72680347D03*
X264934289Y-71665795D03*
%TD*%
D20*
%TO.C,TP3*%
X205600000Y-127250000D03*
%TD*%
D14*
%TO.C,SW15*%
X155744843Y-89811761D03*
D15*
X161124655Y-90955275D03*
D16*
X167103815Y-87932354D03*
D14*
X166504467Y-92098789D03*
D17*
X159897976Y-96726346D03*
X155443853Y-93632677D03*
%TD*%
D21*
%TO.C,C12*%
X203351992Y-108248008D03*
X204448008Y-107151992D03*
%TD*%
D22*
%TO.C,U2*%
X200950002Y-69862500D03*
X200000002Y-69862500D03*
X199050002Y-69862500D03*
X199050002Y-72137500D03*
X200000002Y-72137500D03*
X200950002Y-72137500D03*
%TD*%
D23*
%TO.C,U1*%
X199050000Y-88687500D03*
X200950000Y-88687500D03*
X200000000Y-86812500D03*
%TD*%
D24*
%TO.C,C6*%
X195750000Y-112700000D03*
X195750000Y-110800000D03*
%TD*%
D25*
%TO.C,R3*%
X195750000Y-69675000D03*
X195750000Y-71325000D03*
%TD*%
D20*
%TO.C,TP2*%
X198100000Y-127250000D03*
%TD*%
D14*
%TO.C,SW20*%
X169447236Y-108314989D03*
D15*
X174827048Y-109458503D03*
D16*
X180806208Y-106435582D03*
D14*
X180206860Y-110602017D03*
D17*
X173600369Y-115229574D03*
X169146246Y-112135905D03*
%TD*%
D14*
%TO.C,SW14*%
X159331320Y-72938715D03*
D15*
X164711132Y-74082229D03*
D16*
X170690292Y-71059308D03*
D14*
X170090944Y-75225743D03*
D17*
X163484453Y-79853300D03*
X159030330Y-76759631D03*
%TD*%
D14*
%TO.C,SW32*%
X253435279Y-102939989D03*
D15*
X258815091Y-101796475D03*
D16*
X263047792Y-96602956D03*
D14*
X264194903Y-100652961D03*
D17*
X260041770Y-107567546D03*
X254714417Y-106552994D03*
%TD*%
D14*
%TO.C,SW3*%
X83730580Y-96740565D03*
D15*
X89110392Y-97884079D03*
D16*
X95089552Y-94861158D03*
D14*
X94490204Y-99027593D03*
D17*
X87883713Y-103655150D03*
X83429590Y-100561481D03*
%TD*%
D14*
%TO.C,SW21*%
X172969724Y-131122243D03*
D15*
X177870260Y-133619191D03*
D16*
X184428074Y-132246794D03*
D14*
X182770796Y-136116139D03*
D17*
X175191716Y-138876129D03*
X171690063Y-134735063D03*
%TD*%
D11*
%TO.C,C2*%
X202000000Y-82370000D03*
X202000000Y-80820000D03*
%TD*%
D14*
%TO.C,SW5*%
X104605926Y-81497700D03*
D15*
X109985738Y-82641214D03*
D16*
X115964898Y-79618293D03*
D14*
X115365550Y-83784728D03*
D17*
X108759059Y-88412285D03*
X104304936Y-85318616D03*
%TD*%
D14*
%TO.C,SW36*%
X270828105Y-101798882D03*
D15*
X276207917Y-100655368D03*
D16*
X280440618Y-95461849D03*
D14*
X281587729Y-99511854D03*
D17*
X277434596Y-106426439D03*
X272107243Y-105411887D03*
%TD*%
D14*
%TO.C,SW7*%
X125585228Y-65765762D03*
D15*
X130965040Y-66909276D03*
D16*
X136944200Y-63886355D03*
D14*
X136344852Y-68052790D03*
D17*
X129738361Y-72680347D03*
X125284238Y-69586678D03*
%TD*%
D20*
%TO.C,TP4*%
X201850000Y-127250000D03*
%TD*%
D14*
%TO.C,SW4*%
X108192402Y-64624654D03*
D15*
X113572214Y-65768168D03*
D16*
X119551374Y-62745247D03*
D14*
X118952026Y-66911682D03*
D17*
X112345535Y-71539239D03*
X107891412Y-68445570D03*
%TD*%
D26*
%TO.C,U3*%
X193335519Y-101361181D03*
X193689072Y-101714734D03*
X194042625Y-102068287D03*
X194396179Y-102421841D03*
X194749732Y-102775394D03*
X195103286Y-103128948D03*
X195456839Y-103482501D03*
X195810392Y-103836054D03*
X196163946Y-104189608D03*
X196517499Y-104543161D03*
X196871052Y-104896714D03*
X197224606Y-105250268D03*
X197578159Y-105603821D03*
X197931713Y-105957375D03*
X198285266Y-106310928D03*
X198638819Y-106664481D03*
D27*
X201361181Y-106664481D03*
X201714734Y-106310928D03*
X202068287Y-105957375D03*
X202421841Y-105603821D03*
X202775394Y-105250268D03*
X203128948Y-104896714D03*
X203482501Y-104543161D03*
X203836054Y-104189608D03*
X204189608Y-103836054D03*
X204543161Y-103482501D03*
X204896714Y-103128948D03*
X205250268Y-102775394D03*
X205603821Y-102421841D03*
X205957375Y-102068287D03*
X206310928Y-101714734D03*
X206664481Y-101361181D03*
D26*
X206664481Y-98638819D03*
X206310928Y-98285266D03*
X205957375Y-97931713D03*
X205603821Y-97578159D03*
X205250268Y-97224606D03*
X204896714Y-96871052D03*
X204543161Y-96517499D03*
X204189608Y-96163946D03*
X203836054Y-95810392D03*
X203482501Y-95456839D03*
X203128948Y-95103286D03*
X202775394Y-94749732D03*
X202421841Y-94396179D03*
X202068287Y-94042625D03*
X201714734Y-93689072D03*
X201361181Y-93335519D03*
D27*
X198638819Y-93335519D03*
X198285266Y-93689072D03*
X197931713Y-94042625D03*
X197578159Y-94396179D03*
X197224606Y-94749732D03*
X196871052Y-95103286D03*
X196517499Y-95456839D03*
X196163946Y-95810392D03*
X195810392Y-96163946D03*
X195456839Y-96517499D03*
X195103286Y-96871052D03*
X194749732Y-97224606D03*
X194396179Y-97578159D03*
X194042625Y-97931713D03*
X193689072Y-98285266D03*
X193335519Y-98638819D03*
%TD*%
D28*
%TO.C,C8*%
X204250000Y-110800000D03*
X204250000Y-112700000D03*
%TD*%
D14*
%TO.C,SW19*%
X173033713Y-91441942D03*
D15*
X178413525Y-92585456D03*
D16*
X184392685Y-89562535D03*
D14*
X183793337Y-93728970D03*
D17*
X177186846Y-98356527D03*
X172732723Y-95262858D03*
%TD*%
D11*
%TO.C,C16*%
X203000000Y-89275000D03*
X203000000Y-87725000D03*
%TD*%
D14*
%TO.C,SW27*%
X233495536Y-92098789D03*
D15*
X238875348Y-90955275D03*
D16*
X243108049Y-85761756D03*
D14*
X244255160Y-89811761D03*
D17*
X240102027Y-96726346D03*
X234774674Y-95711794D03*
%TD*%
D25*
%TO.C,R4*%
X193750000Y-69675000D03*
X193750000Y-71325000D03*
%TD*%
%TO.C,R2*%
X206250000Y-69675000D03*
X206250000Y-71325000D03*
%TD*%
D29*
%TO.C,C11*%
X191648008Y-102948008D03*
X190551992Y-101851992D03*
%TD*%
D14*
%TO.C,SW17*%
X148571890Y-123557853D03*
D15*
X153951702Y-124701367D03*
D16*
X159930862Y-121678446D03*
D14*
X159331514Y-125844881D03*
D17*
X152725023Y-130472438D03*
X148270900Y-127378769D03*
%TD*%
D25*
%TO.C,R1*%
X204250000Y-69675000D03*
X204250000Y-71325000D03*
%TD*%
D20*
%TO.C,TP1*%
X194350000Y-127250000D03*
%TD*%
D14*
%TO.C,SW22*%
X212620189Y-76855924D03*
D15*
X218000001Y-75712410D03*
D16*
X222232702Y-70518891D03*
D14*
X223379813Y-74568896D03*
D17*
X219226680Y-81483481D03*
X213899327Y-80468929D03*
%TD*%
D14*
%TO.C,SW23*%
X216206666Y-93728970D03*
D15*
X221586478Y-92585456D03*
D16*
X225819179Y-87391937D03*
D14*
X226966290Y-91441942D03*
D17*
X222813157Y-98356527D03*
X217485804Y-97341975D03*
%TD*%
D30*
%TO.C,C1*%
X198000000Y-80820000D03*
X198000000Y-82370000D03*
%TD*%
D31*
%TO.C,C13*%
X200775000Y-90750000D03*
X199225000Y-90750000D03*
%TD*%
D14*
%TO.C,SW2*%
X87317056Y-79867519D03*
D15*
X92696868Y-81011033D03*
D16*
X98676028Y-77988112D03*
D14*
X98076680Y-82154547D03*
D17*
X91470189Y-86782104D03*
X87016066Y-83688435D03*
%TD*%
D32*
%TO.C,H6*%
X283572322Y-113658369D03*
%TD*%
D14*
%TO.C,SW25*%
X217229207Y-136116139D03*
D15*
X222129743Y-133619191D03*
D16*
X224874037Y-127507133D03*
D14*
X227030279Y-131122243D03*
D17*
X224808287Y-138876129D03*
X219399874Y-139274968D03*
%TD*%
D28*
%TO.C,C7*%
X196500000Y-114800000D03*
X196500000Y-116700000D03*
%TD*%
D14*
%TO.C,SW33*%
X257021756Y-119813036D03*
D15*
X262401568Y-118669522D03*
D16*
X266634269Y-113476003D03*
D14*
X267781380Y-117526008D03*
D17*
X263628247Y-124440593D03*
X258300894Y-123426041D03*
%TD*%
D30*
%TO.C,C5*%
X197000000Y-87725000D03*
X197000000Y-89275000D03*
%TD*%
D32*
%TO.C,H1*%
X104960704Y-55298957D03*
%TD*%
D33*
%TO.C,C3*%
X200950000Y-84500000D03*
X199050000Y-84500000D03*
%TD*%
D28*
%TO.C,C9*%
X203500000Y-114800000D03*
X203500000Y-116700000D03*
%TD*%
D14*
%TO.C,SW18*%
X176620189Y-74568896D03*
D15*
X182000001Y-75712410D03*
D16*
X187979161Y-72689489D03*
D14*
X187379813Y-76855924D03*
D17*
X180773322Y-81483481D03*
X176319199Y-78389812D03*
%TD*%
D14*
%TO.C,SW10*%
X142978053Y-66906869D03*
D15*
X148357865Y-68050383D03*
D16*
X154337025Y-65027462D03*
D14*
X153737677Y-69193897D03*
D17*
X147131186Y-73821454D03*
X142677063Y-70727785D03*
%TD*%
D32*
%TO.C,H5*%
X295039299Y-55298957D03*
%TD*%
D14*
%TO.C,SW8*%
X121998751Y-82638808D03*
D15*
X127378563Y-83782322D03*
D16*
X133357723Y-80759401D03*
D14*
X132758375Y-84925836D03*
D17*
X126151884Y-89553393D03*
X121697761Y-86459724D03*
%TD*%
D14*
%TO.C,SW42*%
X305509799Y-99027593D03*
D15*
X310889611Y-97884079D03*
D16*
X315122312Y-92690560D03*
D14*
X316269423Y-96740565D03*
D17*
X312116290Y-103655150D03*
X306788937Y-102640598D03*
%TD*%
D34*
%TO.C,J1*%
X202900000Y-66150000D03*
X197100000Y-66150000D03*
D35*
X203375000Y-67600000D03*
X202575000Y-67600000D03*
X201250000Y-67600000D03*
X200250000Y-67600000D03*
X199750000Y-67600000D03*
X198750000Y-67600000D03*
X197425000Y-67600000D03*
X196625000Y-67600000D03*
D36*
X196900000Y-67600000D03*
X197700000Y-67600000D03*
D35*
X198250000Y-67600000D03*
X199250000Y-67600000D03*
X200750000Y-67600000D03*
X201750000Y-67600000D03*
D36*
X202300000Y-67600000D03*
X203100000Y-67600000D03*
D37*
X204320000Y-66680000D03*
D38*
X204320000Y-62500000D03*
D37*
X195680000Y-66680000D03*
D38*
X195680000Y-62500000D03*
%TD*%
D14*
%TO.C,SW12*%
X135805100Y-100652961D03*
D15*
X141184912Y-101796475D03*
D16*
X147164072Y-98773554D03*
D14*
X146564724Y-102939989D03*
D17*
X139958233Y-107567546D03*
X135504110Y-104473877D03*
%TD*%
D14*
%TO.C,SW39*%
X288220930Y-100657774D03*
D15*
X293600742Y-99514260D03*
D16*
X297833443Y-94320741D03*
D14*
X298980554Y-98370746D03*
D17*
X294827421Y-105285331D03*
X289500068Y-104270779D03*
%TD*%
D39*
%TO.C,FB1*%
X200000000Y-80462500D03*
X200000000Y-82037500D03*
%TD*%
D40*
%TO.C,Y1*%
X198350000Y-112750000D03*
X201650000Y-112750000D03*
X201650000Y-110750000D03*
X198350000Y-110750000D03*
%TD*%
D14*
%TO.C,SW24*%
X219793143Y-110602017D03*
D15*
X225172955Y-109458503D03*
D16*
X229405656Y-104264984D03*
D14*
X230552767Y-108314989D03*
D17*
X226399634Y-115229574D03*
X221072281Y-114215022D03*
%TD*%
D14*
%TO.C,SW35*%
X267241628Y-84925836D03*
D15*
X272621440Y-83782322D03*
D16*
X276854141Y-78588803D03*
D14*
X278001252Y-82638808D03*
D17*
X273848119Y-89553393D03*
X268520766Y-88538841D03*
%TD*%
D14*
%TO.C,SW28*%
X237082012Y-108971835D03*
D15*
X242461824Y-107828321D03*
D16*
X246694525Y-102634802D03*
D14*
X247841636Y-106684807D03*
D17*
X243688503Y-113599392D03*
X238361150Y-112584840D03*
%TD*%
D11*
%TO.C,C4*%
X197000000Y-85775000D03*
X197000000Y-84225000D03*
%TD*%
D14*
%TO.C,SW37*%
X281047977Y-66911682D03*
D15*
X286427789Y-65768168D03*
D16*
X290660490Y-60574649D03*
D14*
X291807601Y-64624654D03*
D17*
X287654468Y-71539239D03*
X282327115Y-70524687D03*
%TD*%
D32*
%TO.C,H3*%
X200000002Y-76336118D03*
%TD*%
D14*
%TO.C,SW13*%
X132218623Y-117526008D03*
D15*
X137598435Y-118669522D03*
D16*
X143577595Y-115646601D03*
D14*
X142978247Y-119813036D03*
D17*
X136371756Y-124440593D03*
X131917633Y-121346924D03*
%TD*%
D14*
%TO.C,SW26*%
X229909059Y-75225743D03*
D15*
X235288871Y-74082229D03*
D16*
X239521572Y-68888710D03*
D14*
X240668683Y-72938715D03*
D17*
X236515550Y-79853300D03*
X231188197Y-78838748D03*
%TD*%
D21*
%TO.C,C14*%
X207951992Y-103548008D03*
X209048008Y-102451992D03*
%TD*%
D14*
%TO.C,SW6*%
X101019449Y-98370746D03*
D15*
X106399261Y-99514260D03*
D16*
X112378421Y-96491339D03*
D14*
X111779073Y-100657774D03*
D17*
X105172582Y-105285331D03*
X100718459Y-102191662D03*
%TD*%
D32*
%TO.C,H2*%
X116427681Y-113658369D03*
%TD*%
D14*
%TO.C,SW30*%
X246262326Y-69193897D03*
D15*
X251642138Y-68050383D03*
D16*
X255874839Y-62856864D03*
D14*
X257021950Y-66906869D03*
D17*
X252868817Y-73821454D03*
X247541464Y-72806902D03*
%TD*%
D14*
%TO.C,SW31*%
X249848803Y-86066943D03*
D15*
X255228615Y-84923429D03*
D16*
X259461316Y-79729910D03*
D14*
X260608427Y-83779915D03*
D17*
X256455294Y-90694500D03*
X251127941Y-89679948D03*
%TD*%
D32*
%TO.C,H4*%
X200000002Y-133098867D03*
%TD*%
D14*
%TO.C,SW41*%
X301923323Y-82154547D03*
D15*
X307303135Y-81011033D03*
D16*
X311535836Y-75817514D03*
D14*
X312682947Y-79867519D03*
D17*
X308529814Y-86782104D03*
X303202461Y-85767552D03*
%TD*%
D14*
%TO.C,SW29*%
X240668489Y-125844881D03*
D15*
X246048301Y-124701367D03*
D16*
X250281002Y-119507848D03*
D14*
X251428113Y-123557853D03*
D17*
X247274980Y-130472438D03*
X241947627Y-129457886D03*
%TD*%
M02*
