M48
; DRILL file {KiCad 7.0.2} date Sun Jun 25 00:33:07 2023
; FORMAT={-:-/ absolute / metric / decimal}
; #@! TF.CreationDate,2023-06-25T00:33:07+10:00
; #@! TF.GenerationSoftware,Kicad,Pcbnew,7.0.2
; #@! TF.FileFunction,NonPlated,1,2,NPTH
FMAT,2
METRIC
; #@! TA.AperFunction,NonPlated,NPTH,ComponentDrill
T1C0.650
; #@! TA.AperFunction,NonPlated,NPTH,ComponentDrill
T2C0.991
; #@! TA.AperFunction,NonPlated,NPTH,ComponentDrill
T3C1.702
; #@! TA.AperFunction,NonPlated,NPTH,ComponentDrill
T4C3.200
; #@! TA.AperFunction,NonPlated,NPTH,ComponentDrill
T5C3.429
%
G90
G05
T1
X197.1Y-66.15
X202.9Y-66.15
T2
X95.09Y-94.861
X98.676Y-77.988
X102.263Y-61.115
X112.378Y-96.491
X115.965Y-79.618
X119.551Y-62.745
X129.771Y-97.632
X133.358Y-80.759
X136.944Y-63.886
X143.578Y-115.647
X147.164Y-98.774
X150.751Y-81.901
X154.337Y-65.027
X159.931Y-121.678
X163.517Y-104.805
X167.104Y-87.932
X170.69Y-71.059
X180.806Y-106.436
X184.393Y-89.563
X184.428Y-132.247
X187.979Y-72.689
X222.233Y-70.519
X224.874Y-127.507
X225.819Y-87.392
X229.406Y-104.265
X239.522Y-68.889
X243.108Y-85.762
X246.695Y-102.635
X250.281Y-119.508
X255.875Y-62.857
X259.461Y-79.73
X263.048Y-96.603
X266.634Y-113.476
X273.268Y-61.716
X276.854Y-78.589
X280.441Y-95.462
X290.66Y-60.575
X294.247Y-77.448
X297.833Y-94.321
X307.949Y-58.944
X311.536Y-75.818
X315.122Y-92.691
T3
X83.731Y-96.741
X87.317Y-79.868
X90.904Y-62.994
X94.49Y-99.028
X98.077Y-82.155
X101.019Y-98.371
X101.663Y-65.281
X104.606Y-81.498
X108.192Y-64.625
X111.779Y-100.658
X115.366Y-83.785
X118.412Y-99.512
X118.952Y-66.912
X121.999Y-82.639
X125.585Y-65.766
X129.172Y-101.799
X132.219Y-117.526
X132.758Y-84.926
X135.805Y-100.653
X136.345Y-68.053
X139.392Y-83.78
X142.978Y-66.907
X142.978Y-119.813
X146.565Y-102.94
X148.572Y-123.558
X150.151Y-86.067
X152.158Y-106.685
X153.738Y-69.194
X155.745Y-89.812
X159.331Y-72.939
X159.332Y-125.845
X162.918Y-108.972
X166.504Y-92.099
X169.447Y-108.315
X170.091Y-75.226
X172.97Y-131.122
X173.034Y-91.442
X176.62Y-74.569
X180.207Y-110.602
X182.771Y-136.116
X183.793Y-93.729
X187.38Y-76.856
X212.62Y-76.856
X216.207Y-93.729
X217.229Y-136.116
X219.793Y-110.602
X223.38Y-74.569
X226.966Y-91.442
X227.03Y-131.122
X229.909Y-75.226
X230.553Y-108.315
X233.496Y-92.099
X237.082Y-108.972
X240.668Y-125.845
X240.669Y-72.939
X244.255Y-89.812
X246.262Y-69.194
X247.842Y-106.685
X249.849Y-86.067
X251.428Y-123.558
X253.435Y-102.94
X257.022Y-119.813
X257.022Y-66.907
X260.608Y-83.78
X263.655Y-68.053
X264.195Y-100.653
X267.242Y-84.926
X267.781Y-117.526
X270.828Y-101.799
X274.415Y-65.766
X278.001Y-82.639
X281.048Y-66.912
X281.588Y-99.512
X284.634Y-83.785
X288.221Y-100.658
X291.808Y-64.625
X295.394Y-81.498
X298.337Y-65.281
X298.981Y-98.371
X301.923Y-82.155
X305.51Y-99.028
X309.096Y-62.994
X312.683Y-79.868
X316.269Y-96.741
T4
X104.961Y-55.299
X116.428Y-113.658
X200.0Y-76.336
X200.0Y-133.099
X283.572Y-113.658
X295.039Y-55.299
T5
X89.11Y-97.884
X92.697Y-81.011
X96.283Y-64.138
X106.399Y-99.514
X109.986Y-82.641
X113.572Y-65.768
X123.792Y-100.655
X127.379Y-83.782
X130.965Y-66.909
X137.598Y-118.67
X141.185Y-101.796
X144.771Y-84.923
X148.358Y-68.05
X153.952Y-124.701
X157.538Y-107.828
X161.125Y-90.955
X164.711Y-74.082
X174.827Y-109.459
X177.87Y-133.619
X178.414Y-92.585
X182.0Y-75.712
X218.0Y-75.712
X221.586Y-92.585
X222.13Y-133.619
X225.173Y-109.459
X235.289Y-74.082
X238.875Y-90.955
X242.462Y-107.828
X246.048Y-124.701
X251.642Y-68.05
X255.229Y-84.923
X258.815Y-101.796
X262.402Y-118.67
X269.035Y-66.909
X272.621Y-83.782
X276.208Y-100.655
X286.428Y-65.768
X290.014Y-82.641
X293.601Y-99.514
X303.717Y-64.138
X307.303Y-81.011
X310.89Y-97.884
T0
M30
