0
SECTION
2
HEADER
9
$INSUNITS
70
4
0
ENDSEC
0
SECTION
2
TABLES
0
TABLE
2
LTYPE
0
LTYPE
72
65
70
64
2
CONTINUOUS
3
______
73
0
40
0
0
ENDTAB
0
TABLE
2
LAYER
0
ENDTAB
0
ENDSEC
0
SECTION
2
ENTITIES
0
LINE
8
0
10
-2.7679696
20
26.6580353
11
13.3714659
21
23.2274924
0
LINE
8
0
10
13.3714659
20
23.2274924
11
9.940923
21
7.0880569
0
LINE
8
0
10
9.940923
20
7.0880569
11
-6.1985125
21
10.5185998
0
LINE
8
0
10
-6.1985125
20
10.5185998
11
-2.7679696
21
26.6580353
0
LINE
8
0
10
0.818507
20
43.5310814
11
16.9579425
21
40.1005385
0
LINE
8
0
10
16.9579425
20
40.1005385
11
13.5273996
21
23.961103
0
LINE
8
0
10
13.5273996
20
23.961103
11
-2.6120359
21
27.3916459
0
LINE
8
0
10
-2.6120359
20
27.3916459
11
0.818507
21
43.5310814
0
LINE
8
0
10
4.4049837
20
60.4041275
11
20.5444192
21
56.9735846
0
LINE
8
0
10
20.5444192
20
56.9735846
11
17.1138763
21
40.8341491
0
LINE
8
0
10
17.1138763
20
40.8341491
11
0.9744408
21
44.264692
0
LINE
8
0
10
0.9744408
20
44.264692
11
4.4049837
21
60.4041275
0
LINE
8
0
10
14.5208999
20
25.0278538
11
30.6603354
21
21.5973109
0
LINE
8
0
10
30.6603354
20
21.5973109
11
27.2297925
21
5.4578754
0
LINE
8
0
10
27.2297925
20
5.4578754
11
11.090357
21
8.8884183
0
LINE
8
0
10
11.090357
20
8.8884183
11
14.5208999
21
25.0278538
0
LINE
8
0
10
18.1073765
20
41.9009
11
34.246812
21
38.4703571
0
LINE
8
0
10
34.246812
20
38.4703571
11
30.8162691
21
22.3309216
0
LINE
8
0
10
30.8162691
20
22.3309216
11
14.6768336
21
25.7614645
0
LINE
8
0
10
14.6768336
20
25.7614645
11
18.1073765
21
41.9009
0
LINE
8
0
10
21.6938532
20
58.7739461
11
37.8332887
21
55.3434032
0
LINE
8
0
10
37.8332887
20
55.3434032
11
34.4027458
21
39.2039677
0
LINE
8
0
10
34.4027458
20
39.2039677
11
18.2633103
21
42.6345106
0
LINE
8
0
10
18.2633103
20
42.6345106
11
21.6938532
21
58.7739461
0
LINE
8
0
10
31.9137252
20
23.8867462
11
48.0531607
21
20.4562033
0
LINE
8
0
10
48.0531607
20
20.4562033
11
44.6226178
21
4.3167678
0
LINE
8
0
10
44.6226178
20
4.3167678
11
28.4831823
21
7.7473107
0
LINE
8
0
10
28.4831823
20
7.7473107
11
31.9137252
21
23.8867462
0
LINE
8
0
10
35.5002019
20
40.7597923
11
51.6396374
21
37.3292494
0
LINE
8
0
10
51.6396374
20
37.3292494
11
48.2090945
21
21.1898139
0
LINE
8
0
10
48.2090945
20
21.1898139
11
32.069659
21
24.6203568
0
LINE
8
0
10
32.069659
20
24.6203568
11
35.5002019
21
40.7597923
0
LINE
8
0
10
39.0866785
20
57.6328384
11
55.226114
21
54.2022955
0
LINE
8
0
10
55.226114
20
54.2022955
11
51.7955711
21
38.06286
0
LINE
8
0
10
51.7955711
20
38.06286
11
35.6561356
21
41.4934029
0
LINE
8
0
10
35.6561356
20
41.4934029
11
39.0866785
21
57.6328384
0
LINE
8
0
10
45.7200739
20
5.8725924
11
61.8595094
21
2.4420495
0
LINE
8
0
10
61.8595094
20
2.4420495
11
58.4289665
21
-13.697386
0
LINE
8
0
10
58.4289665
20
-13.697386
11
42.289531
21
-10.2668431
0
LINE
8
0
10
42.289531
20
-10.2668431
11
45.7200739
21
5.8725924
0
LINE
8
0
10
49.3065505
20
22.7456385
11
65.445986
21
19.3150956
0
LINE
8
0
10
65.445986
20
19.3150956
11
62.0154431
21
3.1756601
0
LINE
8
0
10
62.0154431
20
3.1756601
11
45.8760076
21
6.606203
0
LINE
8
0
10
45.8760076
20
6.606203
11
49.3065505
21
22.7456385
0
LINE
8
0
10
52.8930272
20
39.6186846
11
69.0324627
21
36.1881417
0
LINE
8
0
10
69.0324627
20
36.1881417
11
65.6019198
21
20.0487062
0
LINE
8
0
10
65.6019198
20
20.0487062
11
49.4624843
21
23.4792491
0
LINE
8
0
10
49.4624843
20
23.4792491
11
52.8930272
21
39.6186846
0
LINE
8
0
10
56.4795039
20
56.4917307
11
72.6189394
21
53.0611878
0
LINE
8
0
10
72.6189394
20
53.0611878
11
69.1883965
21
36.9217523
0
LINE
8
0
10
69.1883965
20
36.9217523
11
53.048961
21
40.3522952
0
LINE
8
0
10
53.048961
20
40.3522952
11
56.4795039
21
56.4917307
0
LINE
8
0
10
62.0733408
20
-0.1592533
11
78.2127763
21
-3.5897962
0
LINE
8
0
10
78.2127763
20
-3.5897962
11
74.7822334
21
-19.7292317
0
LINE
8
0
10
74.7822334
20
-19.7292317
11
58.6427979
21
-16.2986888
0
LINE
8
0
10
58.6427979
20
-16.2986888
11
62.0733408
21
-0.1592533
0
LINE
8
0
10
65.6598174
20
16.7137928
11
81.7992529
21
13.2832499
0
LINE
8
0
10
81.7992529
20
13.2832499
11
78.36871
21
-2.8561856
0
LINE
8
0
10
78.36871
20
-2.8561856
11
62.2292745
21
0.5743573
0
LINE
8
0
10
62.2292745
20
0.5743573
11
65.6598174
21
16.7137928
0
LINE
8
0
10
69.2462941
20
33.586839
11
85.3857296
21
30.1562961
0
LINE
8
0
10
85.3857296
20
30.1562961
11
81.9551867
21
14.0168606
0
LINE
8
0
10
81.9551867
20
14.0168606
11
65.8157512
21
17.4474035
0
LINE
8
0
10
65.8157512
20
17.4474035
11
69.2462941
21
33.586839
0
LINE
8
0
10
72.8327708
20
50.4598851
11
88.9722063
21
47.0293422
0
LINE
8
0
10
88.9722063
20
47.0293422
11
85.5416634
21
30.8899067
0
LINE
8
0
10
85.5416634
20
30.8899067
11
69.4022279
21
34.3204496
0
LINE
8
0
10
69.4022279
20
34.3204496
11
72.8327708
21
50.4598851
0
LINE
8
0
10
82.9486869
20
15.0836114
11
99.0881224
21
11.6530685
0
LINE
8
0
10
99.0881224
20
11.6530685
11
95.6575795
21
-4.486367
0
LINE
8
0
10
95.6575795
20
-4.486367
11
79.518144
21
-1.0558241
0
LINE
8
0
10
79.518144
20
-1.0558241
11
82.9486869
21
15.0836114
0
LINE
8
0
10
86.5351636
20
31.9566575
11
102.6745991
21
28.5261146
0
LINE
8
0
10
102.6745991
20
28.5261146
11
99.2440562
21
12.3866791
0
LINE
8
0
10
99.2440562
20
12.3866791
11
83.1046207
21
15.817222
0
LINE
8
0
10
83.1046207
20
15.817222
11
86.5351636
21
31.9566575
0
LINE
8
0
10
90.1216403
20
48.8297036
11
106.2610758
21
45.3991607
0
LINE
8
0
10
106.2610758
20
45.3991607
11
102.8305329
21
29.2597252
0
LINE
8
0
10
102.8305329
20
29.2597252
11
86.6910974
21
32.6902681
0
LINE
8
0
10
86.6910974
20
32.6902681
11
90.1216403
21
48.8297036
0
LINE
8
0
10
84.0631786
20
-5.3823906
11
108.1203548
21
-17.6401341
0
LINE
8
0
10
108.1203548
20
-17.6401341
11
100.6295116
21
-32.3417418
0
LINE
8
0
10
100.6295116
20
-32.3417418
11
76.5723354
21
-20.0839983
0
LINE
8
0
10
76.5723354
20
-20.0839983
11
84.0631786
21
-5.3823906
0
LINE
8
0
10
215.5807073
20
23.2274924
11
231.7201428
21
26.6580353
0
LINE
8
0
10
231.7201428
20
26.6580353
11
235.1506857
21
10.5185998
0
LINE
8
0
10
235.1506857
20
10.5185998
11
219.0112502
21
7.0880569
0
LINE
8
0
10
219.0112502
20
7.0880569
11
215.5807073
21
23.2274924
0
LINE
8
0
10
211.9942307
20
40.1005385
11
228.1336662
21
43.5310814
0
LINE
8
0
10
228.1336662
20
43.5310814
11
231.5642091
21
27.3916459
0
LINE
8
0
10
231.5642091
20
27.3916459
11
215.4247736
21
23.961103
0
LINE
8
0
10
215.4247736
20
23.961103
11
211.9942307
21
40.1005385
0
LINE
8
0
10
208.407754
20
56.9735846
11
224.5471895
21
60.4041275
0
LINE
8
0
10
224.5471895
20
60.4041275
11
227.9777324
21
44.264692
0
LINE
8
0
10
227.9777324
20
44.264692
11
211.8382969
21
40.8341491
0
LINE
8
0
10
211.8382969
20
40.8341491
11
208.407754
21
56.9735846
0
LINE
8
0
10
198.2918378
20
21.5973109
11
214.4312733
21
25.0278538
0
LINE
8
0
10
214.4312733
20
25.0278538
11
217.8618162
21
8.8884183
0
LINE
8
0
10
217.8618162
20
8.8884183
11
201.7223807
21
5.4578754
0
LINE
8
0
10
201.7223807
20
5.4578754
11
198.2918378
21
21.5973109
0
LINE
8
0
10
194.7053612
20
38.4703571
11
210.8447967
21
41.9009
0
LINE
8
0
10
210.8447967
20
41.9009
11
214.2753396
21
25.7614645
0
LINE
8
0
10
214.2753396
20
25.7614645
11
198.1359041
21
22.3309216
0
LINE
8
0
10
198.1359041
20
22.3309216
11
194.7053612
21
38.4703571
0
LINE
8
0
10
191.1188845
20
55.3434032
11
207.25832
21
58.7739461
0
LINE
8
0
10
207.25832
20
58.7739461
11
210.6888629
21
42.6345106
0
LINE
8
0
10
210.6888629
20
42.6345106
11
194.5494274
21
39.2039677
0
LINE
8
0
10
194.5494274
20
39.2039677
11
191.1188845
21
55.3434032
0
LINE
8
0
10
180.8990125
20
20.4562033
11
197.038448
21
23.8867462
0
LINE
8
0
10
197.038448
20
23.8867462
11
200.4689909
21
7.7473107
0
LINE
8
0
10
200.4689909
20
7.7473107
11
184.3295554
21
4.3167678
0
LINE
8
0
10
184.3295554
20
4.3167678
11
180.8990125
21
20.4562033
0
LINE
8
0
10
177.3125358
20
37.3292494
11
193.4519713
21
40.7597923
0
LINE
8
0
10
193.4519713
20
40.7597923
11
196.8825142
21
24.6203568
0
LINE
8
0
10
196.8825142
20
24.6203568
11
180.7430787
21
21.1898139
0
LINE
8
0
10
180.7430787
20
21.1898139
11
177.3125358
21
37.3292494
0
LINE
8
0
10
173.7260592
20
54.2022955
11
189.8654947
21
57.6328384
0
LINE
8
0
10
189.8654947
20
57.6328384
11
193.2960376
21
41.4934029
0
LINE
8
0
10
193.2960376
20
41.4934029
11
177.1566021
21
38.06286
0
LINE
8
0
10
177.1566021
20
38.06286
11
173.7260592
21
54.2022955
0
LINE
8
0
10
167.0926638
20
2.4420495
11
183.2320993
21
5.8725924
0
LINE
8
0
10
183.2320993
20
5.8725924
11
186.6626422
21
-10.2668431
0
LINE
8
0
10
186.6626422
20
-10.2668431
11
170.5232067
21
-13.697386
0
LINE
8
0
10
170.5232067
20
-13.697386
11
167.0926638
21
2.4420495
0
LINE
8
0
10
163.5061872
20
19.3150956
11
179.6456227
21
22.7456385
0
LINE
8
0
10
179.6456227
20
22.7456385
11
183.0761656
21
6.606203
0
LINE
8
0
10
183.0761656
20
6.606203
11
166.9367301
21
3.1756601
0
LINE
8
0
10
166.9367301
20
3.1756601
11
163.5061872
21
19.3150956
0
LINE
8
0
10
159.9197105
20
36.1881417
11
176.059146
21
39.6186846
0
LINE
8
0
10
176.059146
20
39.6186846
11
179.4896889
21
23.4792491
0
LINE
8
0
10
179.4896889
20
23.4792491
11
163.3502534
21
20.0487062
0
LINE
8
0
10
163.3502534
20
20.0487062
11
159.9197105
21
36.1881417
0
LINE
8
0
10
156.3332338
20
53.0611878
11
172.4726693
21
56.4917307
0
LINE
8
0
10
172.4726693
20
56.4917307
11
175.9032122
21
40.3522952
0
LINE
8
0
10
175.9032122
20
40.3522952
11
159.7637767
21
36.9217523
0
LINE
8
0
10
159.7637767
20
36.9217523
11
156.3332338
21
53.0611878
0
LINE
8
0
10
150.7393969
20
-3.5897962
11
166.8788324
21
-0.1592533
0
LINE
8
0
10
166.8788324
20
-0.1592533
11
170.3093753
21
-16.2986888
0
LINE
8
0
10
170.3093753
20
-16.2986888
11
154.1699398
21
-19.7292317
0
LINE
8
0
10
154.1699398
20
-19.7292317
11
150.7393969
21
-3.5897962
0
LINE
8
0
10
147.1529203
20
13.2832499
11
163.2923558
21
16.7137928
0
LINE
8
0
10
163.2923558
20
16.7137928
11
166.7228987
21
0.5743573
0
LINE
8
0
10
166.7228987
20
0.5743573
11
150.5834632
21
-2.8561856
0
LINE
8
0
10
150.5834632
20
-2.8561856
11
147.1529203
21
13.2832499
0
LINE
8
0
10
143.5664436
20
30.1562961
11
159.7058791
21
33.586839
0
LINE
8
0
10
159.7058791
20
33.586839
11
163.136422
21
17.4474035
0
LINE
8
0
10
163.136422
20
17.4474035
11
146.9969865
21
14.0168606
0
LINE
8
0
10
146.9969865
20
14.0168606
11
143.5664436
21
30.1562961
0
LINE
8
0
10
139.9799669
20
47.0293422
11
156.1194024
21
50.4598851
0
LINE
8
0
10
156.1194024
20
50.4598851
11
159.5499453
21
34.3204496
0
LINE
8
0
10
159.5499453
20
34.3204496
11
143.4105098
21
30.8899067
0
LINE
8
0
10
143.4105098
20
30.8899067
11
139.9799669
21
47.0293422
0
LINE
8
0
10
129.8640508
20
11.6530685
11
146.0034863
21
15.0836114
0
LINE
8
0
10
146.0034863
20
15.0836114
11
149.4340292
21
-1.0558241
0
LINE
8
0
10
149.4340292
20
-1.0558241
11
133.2945937
21
-4.486367
0
LINE
8
0
10
133.2945937
20
-4.486367
11
129.8640508
21
11.6530685
0
LINE
8
0
10
126.2775741
20
28.5261146
11
142.4170096
21
31.9566575
0
LINE
8
0
10
142.4170096
20
31.9566575
11
145.8475525
21
15.817222
0
LINE
8
0
10
145.8475525
20
15.817222
11
129.708117
21
12.3866791
0
LINE
8
0
10
129.708117
20
12.3866791
11
126.2775741
21
28.5261146
0
LINE
8
0
10
122.6910974
20
45.3991607
11
138.8305329
21
48.8297036
0
LINE
8
0
10
138.8305329
20
48.8297036
11
142.2610758
21
32.6902681
0
LINE
8
0
10
142.2610758
20
32.6902681
11
126.1216403
21
29.2597252
0
LINE
8
0
10
126.1216403
20
29.2597252
11
122.6910974
21
45.3991607
0
LINE
8
0
10
120.8318184
20
-17.6401341
11
144.8889946
21
-5.3823906
0
LINE
8
0
10
144.8889946
20
-5.3823906
11
152.3798378
21
-20.0839983
0
LINE
8
0
10
152.3798378
20
-20.0839983
11
128.3226616
21
-32.3417418
0
LINE
8
0
10
128.3226616
20
-32.3417418
11
120.8318184
21
-17.6401341
0
ENDSEC
0
EOF