0
SECTION
2
HEADER
9
$INSUNITS
70
4
0
ENDSEC
0
SECTION
2
TABLES
0
TABLE
2
LTYPE
0
LTYPE
72
65
70
64
2
CONTINUOUS
3
______
73
0
40
0
0
ENDTAB
0
TABLE
2
LAYER
0
ENDTAB
0
ENDSEC
0
SECTION
2
ENTITIES
0
LINE
8
0
10
-6.9321232
20
10.6745336
11
10.6745336
21
6.9321232
0
LINE
8
0
10
10.6745336
20
6.9321232
11
6.9321232
21
-10.6745336
0
LINE
8
0
10
6.9321232
20
-10.6745336
11
-10.6745336
21
-6.9321232
0
LINE
8
0
10
-10.6745336
20
-6.9321232
11
-6.9321232
21
10.6745336
0
LINE
8
0
10
-3.3976245
20
27.3030428
11
14.2090323
21
23.5606324
0
LINE
8
0
10
14.2090323
20
23.5606324
11
10.4666219
21
5.9539756
0
LINE
8
0
10
10.4666219
20
5.9539756
11
-7.1400349
21
9.696386
0
LINE
8
0
10
-7.1400349
20
9.696386
11
-3.3976245
21
27.3030428
0
LINE
8
0
10
0.1368743
20
43.931552
11
17.7435311
21
40.1891416
0
LINE
8
0
10
17.7435311
20
40.1891416
11
14.0011207
21
22.5824848
0
LINE
8
0
10
14.0011207
20
22.5824848
11
-3.6055361
21
26.3248952
0
LINE
8
0
10
-3.6055361
20
26.3248952
11
0.1368743
21
43.931552
0
LINE
8
0
10
11.090357
20
8.8884184
11
28.6970138
21
5.146008
0
LINE
8
0
10
28.6970138
20
5.146008
11
24.9546034
21
-12.4606488
0
LINE
8
0
10
24.9546034
20
-12.4606488
11
7.3479466
21
-8.7182384
0
LINE
8
0
10
7.3479466
20
-8.7182384
11
11.090357
21
8.8884184
0
LINE
8
0
10
14.6248557
20
25.5169276
11
32.2315125
21
21.7745172
0
LINE
8
0
10
32.2315125
20
21.7745172
11
28.4891021
21
4.1678604
0
LINE
8
0
10
28.4891021
20
4.1678604
11
10.8824453
21
7.9102708
0
LINE
8
0
10
10.8824453
20
7.9102708
11
14.6248557
21
25.5169276
0
LINE
8
0
10
18.1593545
20
42.1454368
11
35.7660113
21
38.4030264
0
LINE
8
0
10
35.7660113
20
38.4030264
11
32.0236009
21
20.7963696
0
LINE
8
0
10
32.0236009
20
20.7963696
11
14.4169441
21
24.53878
0
LINE
8
0
10
14.4169441
20
24.53878
11
18.1593545
21
42.1454368
0
LINE
8
0
10
29.216793
20
7.5913769
11
46.8234498
21
3.8489665
0
LINE
8
0
10
46.8234498
20
3.8489665
11
43.0810394
21
-13.7576903
0
LINE
8
0
10
43.0810394
20
-13.7576903
11
25.4743826
21
-10.0152799
0
LINE
8
0
10
25.4743826
20
-10.0152799
11
29.216793
21
7.5913769
0
LINE
8
0
10
32.7512918
20
24.2198861
11
50.3579486
21
20.4774757
0
LINE
8
0
10
50.3579486
20
20.4774757
11
46.6155382
21
2.8708189
0
LINE
8
0
10
46.6155382
20
2.8708189
11
29.0088814
21
6.6132293
0
LINE
8
0
10
29.0088814
20
6.6132293
11
32.7512918
21
24.2198861
0
LINE
8
0
10
36.2857905
20
40.8483954
11
53.8924473
21
37.105985
0
LINE
8
0
10
53.8924473
20
37.105985
11
50.1500369
21
19.4993282
0
LINE
8
0
10
50.1500369
20
19.4993282
11
32.5433801
21
23.2417386
0
LINE
8
0
10
32.5433801
20
23.2417386
11
36.2857905
21
40.8483954
0
LINE
8
0
10
47.3432291
20
6.2943355
11
64.9498859
21
2.5519251
0
LINE
8
0
10
64.9498859
20
2.5519251
11
61.2074755
21
-15.0547317
0
LINE
8
0
10
61.2074755
20
-15.0547317
11
43.6008187
21
-11.3123213
0
LINE
8
0
10
43.6008187
20
-11.3123213
11
47.3432291
21
6.2943355
0
LINE
8
0
10
50.8777278
20
22.9228447
11
68.4843846
21
19.1804343
0
LINE
8
0
10
68.4843846
20
19.1804343
11
64.7419742
21
1.5737775
0
LINE
8
0
10
64.7419742
20
1.5737775
11
47.1353174
21
5.3161879
0
LINE
8
0
10
47.1353174
20
5.3161879
11
50.8777278
21
22.9228447
0
LINE
8
0
10
54.4122266
20
39.5513539
11
72.0188834
21
35.8089435
0
LINE
8
0
10
72.0188834
20
35.8089435
11
68.276473
21
18.2022867
0
LINE
8
0
10
68.276473
20
18.2022867
11
50.6698162
21
21.9446971
0
LINE
8
0
10
50.6698162
20
21.9446971
11
54.4122266
21
39.5513539
0
LINE
8
0
10
64.4301067
20
0.1065561
11
82.0367635
21
-3.6358543
0
LINE
8
0
10
82.0367635
20
-3.6358543
11
78.2943531
21
-21.2425111
0
LINE
8
0
10
78.2943531
20
-21.2425111
11
60.6876963
21
-17.5001007
0
LINE
8
0
10
60.6876963
20
-17.5001007
11
64.4301067
21
0.1065561
0
LINE
8
0
10
67.9646054
20
16.7350653
11
85.5712622
21
12.9926549
0
LINE
8
0
10
85.5712622
20
12.9926549
11
81.8288518
21
-4.6140019
0
LINE
8
0
10
81.8288518
20
-4.6140019
11
64.222195
21
-0.8715915
0
LINE
8
0
10
64.222195
20
-0.8715915
11
67.9646054
21
16.7350653
0
LINE
8
0
10
71.4991041
20
33.3635745
11
89.1057609
21
29.6211641
0
LINE
8
0
10
89.1057609
20
29.6211641
11
85.3633505
21
12.0145073
0
LINE
8
0
10
85.3633505
20
12.0145073
11
67.7566937
21
15.7569177
0
LINE
8
0
10
67.7566937
20
15.7569177
11
71.4991041
21
33.3635745
0
LINE
8
0
10
82.4525869
20
-1.6795592
11
100.0592437
21
-5.4219696
0
LINE
8
0
10
100.0592437
20
-5.4219696
11
96.3168333
21
-23.0286264
0
LINE
8
0
10
96.3168333
20
-23.0286264
11
78.7101765
21
-19.286216
0
LINE
8
0
10
78.7101765
20
-19.286216
11
82.4525869
21
-1.6795592
0
LINE
8
0
10
85.9870856
20
14.94895
11
103.5937424
21
11.2065396
0
LINE
8
0
10
103.5937424
20
11.2065396
11
99.851332
21
-6.4001172
0
LINE
8
0
10
99.851332
20
-6.4001172
11
82.2446752
21
-2.6577068
0
LINE
8
0
10
82.2446752
20
-2.6577068
11
85.9870856
21
14.94895
0
LINE
8
0
10
89.5215843
20
31.5774593
11
107.1282411
21
27.8350489
0
LINE
8
0
10
107.1282411
20
27.8350489
11
103.3858307
21
10.2283921
0
LINE
8
0
10
103.3858307
20
10.2283921
11
85.7791739
21
13.9708025
0
LINE
8
0
10
85.7791739
20
13.9708025
11
89.5215843
21
31.5774593
0
LINE
8
0
10
58.2546094
20
-15.9605916
11
84.6645946
21
-21.5742072
0
LINE
8
0
10
84.6645946
20
-21.5742072
11
80.9221842
21
-39.180864
0
LINE
8
0
10
80.9221842
20
-39.180864
11
54.512199
21
-33.5672484
0
LINE
8
0
10
54.512199
20
-33.5672484
11
58.2546094
21
-15.9605916
0
LINE
8
0
10
89.8650602
20
-23.5103649
11
113.9222364
21
-35.7681084
0
LINE
8
0
10
113.9222364
20
-35.7681084
11
105.7504074
21
-51.8062259
0
LINE
8
0
10
105.7504074
20
-51.8062259
11
81.6932312
21
-39.5484824
0
LINE
8
0
10
81.6932312
20
-39.5484824
11
89.8650602
21
-23.5103649
0
LINE
8
0
10
218.2328814
20
6.9321232
11
235.8395382
21
10.6745336
0
LINE
8
0
10
235.8395382
20
10.6745336
11
239.5819486
21
-6.9321232
0
LINE
8
0
10
239.5819486
20
-6.9321232
11
221.9752918
21
-10.6745336
0
LINE
8
0
10
221.9752918
20
-10.6745336
11
218.2328814
21
6.9321232
0
LINE
8
0
10
214.6983827
20
23.5606324
11
232.3050395
21
27.3030428
0
LINE
8
0
10
232.3050395
20
27.3030428
11
236.0474499
21
9.696386
0
LINE
8
0
10
236.0474499
20
9.696386
11
218.4407931
21
5.9539756
0
LINE
8
0
10
218.4407931
20
5.9539756
11
214.6983827
21
23.5606324
0
LINE
8
0
10
211.1638839
20
40.1891416
11
228.7705407
21
43.931552
0
LINE
8
0
10
228.7705407
20
43.931552
11
232.5129511
21
26.3248952
0
LINE
8
0
10
232.5129511
20
26.3248952
11
214.9062943
21
22.5824848
0
LINE
8
0
10
214.9062943
20
22.5824848
11
211.1638839
21
40.1891416
0
LINE
8
0
10
200.2104012
20
5.146008
11
217.817058
21
8.8884184
0
LINE
8
0
10
217.817058
20
8.8884184
11
221.5594684
21
-8.7182384
0
LINE
8
0
10
221.5594684
20
-8.7182384
11
203.9528116
21
-12.4606488
0
LINE
8
0
10
203.9528116
20
-12.4606488
11
200.2104012
21
5.146008
0
LINE
8
0
10
196.6759025
20
21.7745172
11
214.2825593
21
25.5169276
0
LINE
8
0
10
214.2825593
20
25.5169276
11
218.0249697
21
7.9102708
0
LINE
8
0
10
218.0249697
20
7.9102708
11
200.4183129
21
4.1678604
0
LINE
8
0
10
200.4183129
20
4.1678604
11
196.6759025
21
21.7745172
0
LINE
8
0
10
193.1414037
20
38.4030264
11
210.7480605
21
42.1454368
0
LINE
8
0
10
210.7480605
20
42.1454368
11
214.4904709
21
24.53878
0
LINE
8
0
10
214.4904709
20
24.53878
11
196.8838141
21
20.7963696
0
LINE
8
0
10
196.8838141
20
20.7963696
11
193.1414037
21
38.4030264
0
LINE
8
0
10
182.0839652
20
3.8489665
11
199.690622
21
7.5913769
0
LINE
8
0
10
199.690622
20
7.5913769
11
203.4330324
21
-10.0152799
0
LINE
8
0
10
203.4330324
20
-10.0152799
11
185.8263756
21
-13.7576903
0
LINE
8
0
10
185.8263756
20
-13.7576903
11
182.0839652
21
3.8489665
0
LINE
8
0
10
178.5494664
20
20.4774757
11
196.1561232
21
24.2198861
0
LINE
8
0
10
196.1561232
20
24.2198861
11
199.8985336
21
6.6132293
0
LINE
8
0
10
199.8985336
20
6.6132293
11
182.2918768
21
2.8708189
0
LINE
8
0
10
182.2918768
20
2.8708189
11
178.5494664
21
20.4774757
0
LINE
8
0
10
175.0149677
20
37.105985
11
192.6216245
21
40.8483954
0
LINE
8
0
10
192.6216245
20
40.8483954
11
196.3640349
21
23.2417386
0
LINE
8
0
10
196.3640349
20
23.2417386
11
178.7573781
21
19.4993282
0
LINE
8
0
10
178.7573781
20
19.4993282
11
175.0149677
21
37.105985
0
LINE
8
0
10
163.9575291
20
2.5519251
11
181.5641859
21
6.2943355
0
LINE
8
0
10
181.5641859
20
6.2943355
11
185.3065963
21
-11.3123213
0
LINE
8
0
10
185.3065963
20
-11.3123213
11
167.6999395
21
-15.0547317
0
LINE
8
0
10
167.6999395
20
-15.0547317
11
163.9575291
21
2.5519251
0
LINE
8
0
10
160.4230304
20
19.1804343
11
178.0296872
21
22.9228447
0
LINE
8
0
10
178.0296872
20
22.9228447
11
181.7720976
21
5.3161879
0
LINE
8
0
10
181.7720976
20
5.3161879
11
164.1654408
21
1.5737775
0
LINE
8
0
10
164.1654408
20
1.5737775
11
160.4230304
21
19.1804343
0
LINE
8
0
10
156.8885316
20
35.8089435
11
174.4951884
21
39.5513539
0
LINE
8
0
10
174.4951884
20
39.5513539
11
178.2375988
21
21.9446971
0
LINE
8
0
10
178.2375988
20
21.9446971
11
160.630942
21
18.2022867
0
LINE
8
0
10
160.630942
20
18.2022867
11
156.8885316
21
35.8089435
0
LINE
8
0
10
146.8706515
20
-3.6358543
11
164.4773083
21
0.1065561
0
LINE
8
0
10
164.4773083
20
0.1065561
11
168.2197187
21
-17.5001007
0
LINE
8
0
10
168.2197187
20
-17.5001007
11
150.6130619
21
-21.2425111
0
LINE
8
0
10
150.6130619
20
-21.2425111
11
146.8706515
21
-3.6358543
0
LINE
8
0
10
143.3361528
20
12.9926549
11
160.9428096
21
16.7350653
0
LINE
8
0
10
160.9428096
20
16.7350653
11
164.68522
21
-0.8715915
0
LINE
8
0
10
164.68522
20
-0.8715915
11
147.0785632
21
-4.6140019
0
LINE
8
0
10
147.0785632
20
-4.6140019
11
143.3361528
21
12.9926549
0
LINE
8
0
10
139.8016541
20
29.6211641
11
157.4083109
21
33.3635745
0
LINE
8
0
10
157.4083109
20
33.3635745
11
161.1507213
21
15.7569177
0
LINE
8
0
10
161.1507213
20
15.7569177
11
143.5440645
21
12.0145073
0
LINE
8
0
10
143.5440645
20
12.0145073
11
139.8016541
21
29.6211641
0
LINE
8
0
10
128.8481713
20
-5.4219696
11
146.4548281
21
-1.6795592
0
LINE
8
0
10
146.4548281
20
-1.6795592
11
150.1972385
21
-19.286216
0
LINE
8
0
10
150.1972385
20
-19.286216
11
132.5905817
21
-23.0286264
0
LINE
8
0
10
132.5905817
20
-23.0286264
11
128.8481713
21
-5.4219696
0
LINE
8
0
10
125.3136726
20
11.2065396
11
142.9203294
21
14.94895
0
LINE
8
0
10
142.9203294
20
14.94895
11
146.6627398
21
-2.6577068
0
LINE
8
0
10
146.6627398
20
-2.6577068
11
129.056083
21
-6.4001172
0
LINE
8
0
10
129.056083
20
-6.4001172
11
125.3136726
21
11.2065396
0
LINE
8
0
10
121.7791739
20
27.8350489
11
139.3858307
21
31.5774593
0
LINE
8
0
10
139.3858307
20
31.5774593
11
143.1282411
21
13.9708025
0
LINE
8
0
10
143.1282411
20
13.9708025
11
125.5215843
21
10.2283921
0
LINE
8
0
10
125.5215843
20
10.2283921
11
121.7791739
21
27.8350489
0
LINE
8
0
10
144.2428204
20
-21.5742072
11
170.6528056
21
-15.9605916
0
LINE
8
0
10
170.6528056
20
-15.9605916
11
174.395216
21
-33.5672484
0
LINE
8
0
10
174.395216
20
-33.5672484
11
147.9852308
21
-39.180864
0
LINE
8
0
10
147.9852308
20
-39.180864
11
144.2428204
21
-21.5742072
0
LINE
8
0
10
114.9851786
20
-35.7681084
11
139.0423548
21
-23.5103649
0
LINE
8
0
10
139.0423548
20
-23.5103649
11
147.2141838
21
-39.5484824
0
LINE
8
0
10
147.2141838
20
-39.5484824
11
123.1570076
21
-51.8062259
0
LINE
8
0
10
123.1570076
20
-51.8062259
11
114.9851786
21
-35.7681084
0
ENDSEC
0
EOF